RobotoSerifText-Light.ufo
<glyph name="numbersign" format="1">
  <advance width="628"/>
  <unicode hex="0023"/>
  <outline>
    <contour>
      <point x="101" y="0" type="line"/>
      <point x="147" y="0" type="line"/>
      <point x="316" y="750" type="line"/>
      <point x="270" y="750" type="line"/>
    </contour>
    <contour>
      <point x="39" y="253" type="line"/>
      <point x="547" y="253" type="line"/>
      <point x="547" y="307" type="line"/>
      <point x="39" y="307" type="line"/>
    </contour>
    <contour>
      <point x="83" y="463" type="line"/>
      <point x="591" y="463" type="line"/>
      <point x="591" y="517" type="line"/>
      <point x="83" y="517" type="line"/>
    </contour>
    <contour>
      <point x="304" y="0" type="line"/>
      <point x="349" y="0" type="line"/>
      <point x="518" y="750" type="line"/>
      <point x="471" y="750" type="line"/>
    </contour>
  </outline>
</glyph>
<glyph name="quotesingle" format="1">
  <advance width="243"/>
  <unicode hex="0027"/>
  <outline>
    <contour>
      <point x="156" y="710" type="line"/>
      <point x="156" y="631"/>
      <point x="142" y="591"/>
      <point x="142" y="465" type="curve"/>
      <point x="101" y="465" type="line"/>
      <point x="101" y="591"/>
      <point x="87" y="630"/>
      <point x="87" y="710" type="curve"/>
    </contour>
  </outline>
</glyph>
<glyph name="parenleft" format="1">
  <advance width="321"/>
  <unicode hex="0028"/>
  <outline>
    <contour>
      <point x="119" y="310" type="curve" smooth="yes"/>
      <point x="119" y="108"/>
      <point x="214" y="-48"/>
      <point x="305" y="-127" type="curve"/>
      <point x="305" y="-130" type="line"/>
      <point x="256" y="-130" type="line"/>
      <point x="149" y="-52"/>
      <point x="55" y="114"/>
      <point x="55" y="310" type="curve" smooth="yes"/>
      <point x="55" y="506"/>
      <point x="149" y="672"/>
      <point x="256" y="750" type="curve"/>
      <point x="305" y="750" type="line"/>
      <point x="305" y="747" type="line"/>
      <point x="214" y="668"/>
      <point x="119" y="512"/>
    </contour>
  </outline>
</glyph>
<glyph name="period" format="1">
  <advance width="224"/>
  <unicode hex="002E"/>
  <outline>
    <contour>
      <point x="164" y="41" type="curve" smooth="yes"/>
      <point x="164" y="71"/>
      <point x="143" y="91"/>
      <point x="112" y="91" type="curve" smooth="yes"/>
      <point x="82" y="91"/>
      <point x="60" y="71"/>
      <point x="60" y="41" type="curve" smooth="yes"/>
      <point x="60" y="11"/>
      <point x="82" y="-8"/>
      <point x="112" y="-8" type="curve" smooth="yes"/>
      <point x="143" y="-8"/>
      <point x="164" y="11"/>
    </contour>
  </outline>
</glyph>
<glyph name="one" format="1">
  <advance width="560"/>
  <unicode hex="0031"/>
  <outline>
    <contour>
      <point x="341" y="72" type="curve" smooth="yes"/>
      <point x="341" y="609" type="line"/>
      <point x="298" y="609" type="line"/>
      <point x="263" y="557"/>
      <point x="192" y="535"/>
      <point x="101" y="533" type="curve"/>
      <point x="101" y="489" type="line"/>
      <point x="185" y="487"/>
      <point x="269" y="515"/>
      <point x="288" y="561" type="curve"/>
      <point x="293" y="574"/>
      <point x="290" y="578"/>
      <point x="276" y="556" type="curve"/>
      <point x="276" y="72" type="line" smooth="yes"/>
      <point x="276" y="43"/>
      <point x="236" y="36"/>
      <point x="171" y="36" type="curve" smooth="yes"/>
      <point x="114" y="36" type="line"/>
      <point x="114" y="0" type="line"/>
      <point x="500" y="0" type="line"/>
      <point x="500" y="36" type="line"/>
      <point x="456" y="36" type="line" smooth="yes"/>
      <point x="385" y="36"/>
      <point x="341" y="43"/>
    </contour>
  </outline>
</glyph>
<glyph name="less" format="1">
  <advance width="560"/>
  <unicode hex="003C"/>
  <outline>
    <contour>
      <point x="463" y="537" type="line"/>
      <point x="98" y="364" type="line"/>
      <point x="98" y="333" type="line"/>
      <point x="118" y="324" type="line"/>
      <point x="463" y="485" type="line"/>
    </contour>
    <contour>
      <point x="463" y="194" type="line"/>
      <point x="117" y="356" type="line"/>
      <point x="98" y="347" type="line"/>
      <point x="98" y="311" type="line"/>
      <point x="463" y="138" type="line"/>
    </contour>
  </outline>
</glyph>
<glyph name="B" format="1">
  <advance width="644"/>
  <unicode hex="0042"/>
  <outline>
    <contour>
      <point x="340" y="710" type="curve" smooth="yes"/>
      <point x="45" y="710" type="line"/>
      <point x="45" y="672" type="line"/>
      <point x="56" y="672" type="line" smooth="yes"/>
      <point x="105" y="672"/>
      <point x="141" y="665"/>
      <point x="141" y="636" type="curve" smooth="yes"/>
      <point x="141" y="74" type="line" smooth="yes"/>
      <point x="141" y="45"/>
      <point x="105" y="38"/>
      <point x="56" y="38" type="curve" smooth="yes"/>
      <point x="45" y="38" type="line"/>
      <point x="45" y="0" type="line"/>
      <point x="350" y="0" type="line" smooth="yes"/>
      <point x="502" y="0"/>
      <point x="591" y="74"/>
      <point x="591" y="195" type="curve" smooth="yes"/>
      <point x="591" y="311"/>
      <point x="493" y="386"/>
      <point x="312" y="386" type="curve"/>
      <point x="303" y="362" type="line"/>
      <point x="472" y="362"/>
      <point x="560" y="431"/>
      <point x="560" y="535" type="curve" smooth="yes"/>
      <point x="560" y="642"/>
      <point x="479" y="710"/>
    </contour>
    <contour>
      <point x="329" y="393" type="curve" smooth="yes"/>
      <point x="206" y="393" type="line"/>
      <point x="206" y="667" type="line"/>
      <point x="340" y="667" type="line" smooth="yes"/>
      <point x="443" y="667"/>
      <point x="493" y="619"/>
      <point x="493" y="534" type="curve" smooth="yes"/>
      <point x="493" y="450"/>
      <point x="443" y="393"/>
    </contour>
    <contour>
      <point x="337" y="351" type="line" smooth="yes"/>
      <point x="463" y="351"/>
      <point x="522" y="287"/>
      <point x="522" y="196" type="curve" smooth="yes"/>
      <point x="522" y="97"/>
      <point x="465" y="43"/>
      <point x="349" y="43" type="curve" smooth="yes"/>
      <point x="206" y="43" type="line"/>
      <point x="206" y="351" type="line"/>
    </contour>
  </outline>
</glyph>
<glyph name="H" format="1">
  <advance width="804"/>
  <unicode hex="0048"/>
  <outline>
    <contour>
      <point x="186" y="388" type="line"/>
      <point x="186" y="344" type="line"/>
      <point x="629" y="344" type="line"/>
      <point x="629" y="388" type="line"/>
    </contour>
    <contour>
      <point x="45" y="0" type="line"/>
      <point x="302" y="0" type="line"/>
      <point x="302" y="38" type="line"/>
      <point x="293" y="38" type="line" smooth="yes"/>
      <point x="255" y="38"/>
      <point x="206" y="41"/>
      <point x="206" y="48" type="curve" smooth="yes"/>
      <point x="206" y="662" type="line" smooth="yes"/>
      <point x="206" y="669"/>
      <point x="255" y="672"/>
      <point x="293" y="672" type="curve" smooth="yes"/>
      <point x="302" y="672" type="line"/>
      <point x="302" y="710" type="line"/>
      <point x="45" y="710" type="line"/>
      <point x="45" y="672" type="line"/>
      <point x="56" y="672" type="line" smooth="yes"/>
      <point x="105" y="672"/>
      <point x="141" y="665"/>
      <point x="141" y="636" type="curve" smooth="yes"/>
      <point x="141" y="74" type="line" smooth="yes"/>
      <point x="141" y="45"/>
      <point x="105" y="38"/>
      <point x="56" y="38" type="curve" smooth="yes"/>
      <point x="45" y="38" type="line"/>
    </contour>
    <contour>
      <point x="502" y="0" type="line"/>
      <point x="759" y="0" type="line"/>
      <point x="759" y="38" type="line"/>
      <point x="748" y="38" type="line" smooth="yes"/>
      <point x="699" y="38"/>
      <point x="663" y="45"/>
      <point x="663" y="74" type="curve" smooth="yes"/>
      <point x="663" y="636" type="line" smooth="yes"/>
      <point x="663" y="665"/>
      <point x="699" y="672"/>
      <point x="748" y="672" type="curve" smooth="yes"/>
      <point x="759" y="672" type="line"/>
      <point x="759" y="710" type="line"/>
      <point x="502" y="710" type="line"/>
      <point x="502" y="672" type="line"/>
      <point x="511" y="672" type="line" smooth="yes"/>
      <point x="549" y="672"/>
      <point x="598" y="669"/>
      <point x="598" y="662" type="curve" smooth="yes"/>
      <point x="598" y="48" type="line" smooth="yes"/>
      <point x="598" y="41"/>
      <point x="549" y="38"/>
      <point x="511" y="38" type="curve" smooth="yes"/>
      <point x="502" y="38" type="line"/>
    </contour>
    <contour>
      <point x="402" y="741" type="move" name="top"/>
    </contour>
    <contour>
      <point x="402" y="0" type="move" name="bottom"/>
    </contour>
  </outline>
</glyph>
<glyph name="J" format="1">
  <advance width="545"/>
  <unicode hex="004A"/>
  <outline>
    <contour>
      <point x="236" y="710" type="line"/>
      <point x="236" y="672" type="line"/>
      <point x="257" y="672" type="line" smooth="yes"/>
      <point x="306" y="672"/>
      <point x="342" y="665"/>
      <point x="342" y="636" type="curve" smooth="yes"/>
      <point x="342" y="229" type="line" smooth="yes"/>
      <point x="342" y="79"/>
      <point x="288" y="34"/>
      <point x="204" y="34" type="curve" smooth="yes"/>
      <point x="138" y="34"/>
      <point x="102" y="64"/>
      <point x="80" y="96" type="curve"/>
      <point x="60" y="114"/>
      <point x="63" y="63"/>
      <point x="103" y="55" type="curve"/>
      <point x="103" y="149" type="line"/>
      <point x="33" y="149" type="line"/>
      <point x="33" y="58" type="line"/>
      <point x="65" y="24"/>
      <point x="123" y="-10"/>
      <point x="204" y="-10" type="curve" smooth="yes"/>
      <point x="324" y="-10"/>
      <point x="405" y="51"/>
      <point x="405" y="229" type="curve" smooth="yes"/>
      <point x="405" y="636" type="line" smooth="yes"/>
      <point x="405" y="665"/>
      <point x="441" y="672"/>
      <point x="490" y="672" type="curve" smooth="yes"/>
      <point x="501" y="672" type="line"/>
      <point x="501" y="710" type="line"/>
    </contour>
    <contour>
      <point x="366" y="741" type="move" name="top"/>
    </contour>
  </outline>
</glyph>
<glyph name="N" format="1">
  <advance width="778"/>
  <unicode hex="004E"/>
  <outline>
    <contour>
      <point x="45" y="0" type="line"/>
      <point x="296" y="0" type="line"/>
      <point x="296" y="38" type="line"/>
      <point x="282" y="38" type="line" smooth="yes"/>
      <point x="239" y="38"/>
      <point x="190" y="46"/>
      <point x="190" y="53" type="curve" smooth="yes"/>
      <point x="190" y="691" type="line"/>
      <point x="176" y="687" type="line"/>
      <point x="571" y="0" type="line"/>
      <point x="639" y="0" type="line"/>
      <point x="639" y="631" type="line" smooth="yes"/>
      <point x="639" y="660"/>
      <point x="675" y="672"/>
      <point x="724" y="672" type="curve" smooth="yes"/>
      <point x="736" y="672" type="line"/>
      <point x="736" y="710" type="line"/>
      <point x="485" y="710" type="line"/>
      <point x="485" y="672" type="line"/>
      <point x="499" y="672" type="line" smooth="yes"/>
      <point x="542" y="672"/>
      <point x="591" y="664"/>
      <point x="591" y="657" type="curve" smooth="yes"/>
      <point x="591" y="56" type="line"/>
      <point x="600" y="66" type="line"/>
      <point x="231" y="710" type="line"/>
      <point x="45" y="710" type="line"/>
      <point x="45" y="672" type="line"/>
      <point x="56" y="672" type="line" smooth="yes"/>
      <point x="105" y="672"/>
      <point x="141" y="665"/>
      <point x="141" y="636" type="curve" smooth="yes"/>
      <point x="141" y="79" type="line" smooth="yes"/>
      <point x="141" y="50"/>
      <point x="105" y="38"/>
      <point x="56" y="38" type="curve" smooth="yes"/>
      <point x="45" y="38" type="line"/>
    </contour>
    <contour>
      <point x="397" y="741" type="move" name="top"/>
    </contour>
    <contour>
      <point x="397" y="0" type="move" name="bottom"/>
    </contour>
  </outline>
</glyph>
<glyph name="O" format="1">
  <advance width="769"/>
  <unicode hex="004F"/>
  <outline>
    <contour>
      <point x="384" y="-10" type="curve" smooth="yes"/>
      <point x="575" y="-10"/>
      <point x="722" y="139"/>
      <point x="722" y="355" type="curve" smooth="yes"/>
      <point x="722" y="572"/>
      <point x="575" y="720"/>
      <point x="384" y="720" type="curve" smooth="yes"/>
      <point x="194" y="720"/>
      <point x="47" y="572"/>
      <point x="47" y="355" type="curve" smooth="yes"/>
      <point x="47" y="139"/>
      <point x="194" y="-10"/>
    </contour>
    <contour>
      <point x="384" y="34" type="curve" smooth="yes"/>
      <point x="228" y="34"/>
      <point x="117" y="158"/>
      <point x="117" y="355" type="curve" smooth="yes"/>
      <point x="117" y="552"/>
      <point x="228" y="676"/>
      <point x="384" y="676" type="curve" smooth="yes"/>
      <point x="540" y="676"/>
      <point x="652" y="552"/>
      <point x="652" y="355" type="curve" smooth="yes"/>
      <point x="652" y="158"/>
      <point x="540" y="34"/>
    </contour>
    <contour>
      <point x="384" y="741" type="move" name="top"/>
    </contour>
    <contour>
      <point x="384" y="0" type="move" name="bottom"/>
    </contour>
  </outline>
</glyph>
<glyph name="Q" format="1">
  <advance width="773"/>
  <unicode hex="0051"/>
  <outline>
    <contour>
      <point x="359" y="-2" type="line"/>
      <point x="356" y="-127"/>
      <point x="438" y="-181"/>
      <point x="561" y="-181" type="curve" smooth="yes"/>
      <point x="609" y="-181"/>
      <point x="657" y="-173"/>
      <point x="697" y="-161" type="curve"/>
      <point x="697" y="-96" type="line"/>
      <point x="651" y="-112"/>
      <point x="609" y="-127"/>
      <point x="551" y="-127" type="curve" smooth="yes"/>
      <point x="460" y="-127"/>
      <point x="403" y="-86"/>
      <point x="407" y="9" type="curve"/>
    </contour>
    <contour>
      <point x="384" y="-10" type="curve" smooth="yes"/>
      <point x="575" y="-10"/>
      <point x="722" y="139"/>
      <point x="722" y="355" type="curve" smooth="yes"/>
      <point x="722" y="572"/>
      <point x="575" y="720"/>
      <point x="384" y="720" type="curve" smooth="yes"/>
      <point x="194" y="720"/>
      <point x="47" y="572"/>
      <point x="47" y="355" type="curve" smooth="yes"/>
      <point x="47" y="139"/>
      <point x="194" y="-10"/>
    </contour>
    <contour>
      <point x="384" y="34" type="curve" smooth="yes"/>
      <point x="228" y="34"/>
      <point x="117" y="158"/>
      <point x="117" y="355" type="curve" smooth="yes"/>
      <point x="117" y="552"/>
      <point x="228" y="676"/>
      <point x="384" y="676" type="curve" smooth="yes"/>
      <point x="540" y="676"/>
      <point x="652" y="552"/>
      <point x="652" y="355" type="curve" smooth="yes"/>
      <point x="652" y="158"/>
      <point x="540" y="34"/>
    </contour>
  </outline>
</glyph>
<glyph name="R" format="1">
  <advance width="675"/>
  <unicode hex="0052"/>
  <outline>
    <contour>
      <point x="45" y="0" type="line"/>
      <point x="293" y="0" type="line"/>
      <point x="293" y="38" type="line"/>
      <point x="282" y="38" type="line" smooth="yes"/>
      <point x="248" y="38"/>
      <point x="205" y="41"/>
      <point x="205" y="48" type="curve" smooth="yes"/>
      <point x="205" y="311" type="line"/>
      <point x="323" y="311" type="line" smooth="yes"/>
      <point x="469" y="311"/>
      <point x="571" y="389"/>
      <point x="571" y="511" type="curve" smooth="yes"/>
      <point x="571" y="632"/>
      <point x="475" y="710"/>
      <point x="324" y="710" type="curve" smooth="yes"/>
      <point x="45" y="710" type="line"/>
      <point x="45" y="672" type="line"/>
      <point x="56" y="672" type="line" smooth="yes"/>
      <point x="105" y="672"/>
      <point x="141" y="665"/>
      <point x="141" y="636" type="curve" smooth="yes"/>
      <point x="141" y="74" type="line" smooth="yes"/>
      <point x="141" y="45"/>
      <point x="105" y="38"/>
      <point x="56" y="38" type="curve" smooth="yes"/>
      <point x="45" y="38" type="line"/>
    </contour>
    <contour>
      <point x="322" y="666" type="line" smooth="yes"/>
      <point x="438" y="666"/>
      <point x="501" y="609"/>
      <point x="501" y="511" type="curve" smooth="yes"/>
      <point x="501" y="419"/>
      <point x="444" y="353"/>
      <point x="323" y="353" type="curve" smooth="yes"/>
      <point x="205" y="353" type="line"/>
      <point x="205" y="666" type="line"/>
    </contour>
    <contour>
      <point x="356" y="326" type="line"/>
      <point x="528" y="0" type="line"/>
      <point x="652" y="0" type="line"/>
      <point x="652" y="38" type="line"/>
      <point x="641" y="38" type="line" smooth="yes"/>
      <point x="607" y="38"/>
      <point x="582" y="43"/>
      <point x="569" y="66" type="curve" smooth="yes"/>
      <point x="417" y="341" type="line"/>
    </contour>
    <contour>
      <point x="374" y="741" type="move" name="top"/>
    </contour>
    <contour>
      <point x="374" y="0" type="move" name="bottom"/>
    </contour>
  </outline>
</glyph>
<glyph name="Z" format="1">
  <advance width="603"/>
  <unicode hex="005A"/>
  <outline>
    <contour>
      <point x="81" y="44" type="line"/>
      <point x="94" y="17" type="line"/>
      <point x="545" y="664" type="line"/>
      <point x="545" y="710" type="line"/>
      <point x="66" y="710" type="line"/>
      <point x="66" y="528" type="line"/>
      <point x="106" y="528" type="line"/>
      <point x="115" y="623" type="line" smooth="yes"/>
      <point x="118" y="659"/>
      <point x="154" y="666"/>
      <point x="240" y="666" type="curve" smooth="yes"/>
      <point x="503" y="666" type="line"/>
      <point x="489" y="684" type="line"/>
      <point x="46" y="49" type="line"/>
      <point x="46" y="0" type="line"/>
      <point x="554" y="0" type="line"/>
      <point x="554" y="202" type="line"/>
      <point x="513" y="202" type="line"/>
      <point x="504" y="87" type="line" smooth="yes"/>
      <point x="501" y="51"/>
      <point x="465" y="44"/>
      <point x="379" y="44" type="curve" smooth="yes"/>
    </contour>
    <contour>
      <point x="316" y="741" type="move" name="top"/>
    </contour>
    <contour>
      <point x="316" y="0" type="move" name="bottom"/>
    </contour>
  </outline>
</glyph>
<glyph name="b" format="1">
  <advance width="617"/>
  <unicode hex="0062"/>
  <outline>
    <contour>
      <point x="505" y="257" type="curve" smooth="yes"/>
      <point x="505" y="122"/>
      <point x="448" y="32"/>
      <point x="341" y="32" type="curve" smooth="yes"/>
      <point x="259" y="32"/>
      <point x="197" y="88"/>
      <point x="154" y="188" type="curve"/>
      <point x="125" y="166" type="line"/>
      <point x="184" y="47"/>
      <point x="242" y="-11"/>
      <point x="343" y="-11" type="curve" smooth="yes"/>
      <point x="481" y="-11"/>
      <point x="572" y="99"/>
      <point x="572" y="257" type="curve" smooth="yes"/>
      <point x="572" y="414"/>
      <point x="484" y="518"/>
      <point x="351" y="518" type="curve" smooth="yes"/>
      <point x="245" y="518"/>
      <point x="187" y="453"/>
      <point x="121" y="334" type="curve"/>
      <point x="148" y="309" type="line"/>
      <point x="197" y="413"/>
      <point x="260" y="475"/>
      <point x="345" y="475" type="curve" smooth="yes"/>
      <point x="449" y="475"/>
      <point x="505" y="391"/>
    </contour>
    <contour>
      <point x="105" y="653" type="curve" smooth="yes"/>
      <point x="105" y="-3" type="line"/>
      <point x="146" y="-3" type="line"/>
      <point x="163" y="117" type="line"/>
      <point x="168" y="132" type="line"/>
      <point x="168" y="735" type="line"/>
      <point x="20" y="735" type="line"/>
      <point x="20" y="700" type="line"/>
      <point x="31" y="698" type="line" smooth="yes"/>
      <point x="81" y="689"/>
      <point x="105" y="682"/>
    </contour>
  </outline>
</glyph>
<glyph name="d" format="1">
  <advance width="620"/>
  <unicode hex="0064"/>
  <outline>
    <contour>
      <point x="512" y="71" type="curve"/>
      <point x="512" y="735" type="line"/>
      <point x="364" y="735" type="line"/>
      <point x="364" y="700" type="line"/>
      <point x="374" y="698" type="line" smooth="yes"/>
      <point x="425" y="689"/>
      <point x="449" y="682"/>
      <point x="449" y="653" type="curve" smooth="yes"/>
      <point x="449" y="127" type="line"/>
      <point x="453" y="123" type="line"/>
      <point x="453" y="0" type="line"/>
      <point x="596" y="0" type="line"/>
      <point x="596" y="35" type="line"/>
      <point x="595" y="35" type="line"/>
      <point x="547" y="35"/>
      <point x="512" y="42"/>
    </contour>
    <contour>
      <point x="112" y="250" type="curve" smooth="yes"/>
      <point x="112" y="385"/>
      <point x="171" y="475"/>
      <point x="279" y="475" type="curve" smooth="yes"/>
      <point x="361" y="475"/>
      <point x="420" y="419"/>
      <point x="463" y="319" type="curve"/>
      <point x="491" y="341" type="line"/>
      <point x="434" y="460"/>
      <point x="378" y="518"/>
      <point x="276" y="518" type="curve" smooth="yes"/>
      <point x="139" y="518"/>
      <point x="45" y="408"/>
      <point x="45" y="250" type="curve" smooth="yes"/>
      <point x="45" y="93"/>
      <point x="132" y="-11"/>
      <point x="266" y="-11" type="curve" smooth="yes"/>
      <point x="372" y="-11"/>
      <point x="429" y="54"/>
      <point x="495" y="173" type="curve"/>
      <point x="469" y="197" type="line"/>
      <point x="419" y="95"/>
      <point x="357" y="32"/>
      <point x="272" y="32" type="curve" smooth="yes"/>
      <point x="167" y="32"/>
      <point x="112" y="116"/>
    </contour>
    <contour>
      <point x="585" y="735" type="move" name="right"/>
    </contour>
    <contour>
      <point x="287" y="0" type="move" name="bottom"/>
    </contour>
  </outline>
</glyph>
<glyph name="f" format="1">
  <advance width="377"/>
  <unicode hex="0066"/>
  <outline>
    <contour>
      <point x="36" y="508" type="line"/>
      <point x="36" y="467" type="line"/>
      <point x="357" y="467" type="line"/>
      <point x="357" y="508" type="line"/>
    </contour>
    <contour>
      <point x="203" y="45" type="curve" smooth="yes"/>
      <point x="203" y="584" type="line" smooth="yes"/>
      <point x="203" y="685"/>
      <point x="244" y="710"/>
      <point x="305" y="710" type="curve" smooth="yes"/>
      <point x="335" y="710"/>
      <point x="362" y="702"/>
      <point x="383" y="695" type="curve"/>
      <point x="383" y="742" type="line"/>
      <point x="366" y="748"/>
      <point x="337" y="752"/>
      <point x="307" y="752" type="curve" smooth="yes"/>
      <point x="218" y="752"/>
      <point x="140" y="709"/>
      <point x="140" y="584" type="curve" smooth="yes"/>
      <point x="140" y="71" type="line" smooth="yes"/>
      <point x="140" y="42"/>
      <point x="107" y="35"/>
      <point x="52" y="35" type="curve" smooth="yes"/>
      <point x="41" y="35" type="line"/>
      <point x="41" y="0" type="line"/>
      <point x="311" y="0" type="line"/>
      <point x="311" y="35" type="line"/>
      <point x="298" y="35" type="line" smooth="yes"/>
      <point x="244" y="35"/>
      <point x="203" y="38"/>
    </contour>
  </outline>
</glyph>
<glyph name="r" format="1">
  <advance width="386"/>
  <unicode hex="0072"/>
  <outline>
    <contour>
      <point x="359" y="514" type="line"/>
      <point x="353" y="516"/>
      <point x="338" y="518"/>
      <point x="325" y="518" type="curve" smooth="yes"/>
      <point x="246" y="518"/>
      <point x="190" y="450"/>
      <point x="159" y="357" type="curve"/>
      <point x="169" y="324" type="line"/>
      <point x="206" y="415"/>
      <point x="243" y="455"/>
      <point x="308" y="455" type="curve" smooth="yes"/>
      <point x="323" y="455"/>
      <point x="343" y="453"/>
      <point x="359" y="448" type="curve"/>
    </contour>
    <contour>
      <point x="36" y="0" type="line"/>
      <point x="282" y="0" type="line"/>
      <point x="282" y="35" type="line"/>
      <point x="265" y="35" type="line" smooth="yes"/>
      <point x="237" y="35"/>
      <point x="183" y="39"/>
      <point x="183" y="70" type="curve" smooth="yes"/>
      <point x="183" y="385" type="line"/>
      <point x="179" y="376" type="line"/>
      <point x="179" y="508" type="line"/>
      <point x="36" y="508" type="line"/>
      <point x="36" y="473" type="line"/>
      <point x="46" y="471" type="line" smooth="yes"/>
      <point x="96" y="461"/>
      <point x="120" y="455"/>
      <point x="120" y="426" type="curve" smooth="yes"/>
      <point x="120" y="71" type="line" smooth="yes"/>
      <point x="120" y="42"/>
      <point x="86" y="35"/>
      <point x="38" y="35" type="curve" smooth="yes"/>
      <point x="36" y="35" type="line"/>
    </contour>
    <contour>
      <point x="208" y="545" type="move" name="top"/>
    </contour>
    <contour>
      <point x="158" y="0" type="move" name="bottom"/>
    </contour>
  </outline>
</glyph>
<glyph name="t" format="1">
  <advance width="353"/>
  <unicode hex="0074"/>
  <outline>
    <contour>
      <point x="12" y="465" type="line"/>
      <point x="319" y="465" type="line"/>
      <point x="319" y="508" type="line"/>
      <point x="148" y="508" type="line"/>
      <point x="110" y="553" type="line"/>
      <point x="110" y="512"/>
      <point x="75" y="503"/>
      <point x="17" y="503" type="curve" smooth="yes"/>
      <point x="12" y="503" type="line"/>
    </contour>
    <contour>
      <point x="168" y="152" type="curve" smooth="yes"/>
      <point x="168" y="648" type="line"/>
      <point x="110" y="648" type="line"/>
      <point x="110" y="500" type="line"/>
      <point x="105" y="492" type="line"/>
      <point x="105" y="151" type="line" smooth="yes"/>
      <point x="105" y="27"/>
      <point x="178" y="-11"/>
      <point x="256" y="-11" type="curve" smooth="yes"/>
      <point x="286" y="-11"/>
      <point x="313" y="-4"/>
      <point x="331" y="4" type="curve"/>
      <point x="331" y="47" type="line"/>
      <point x="314" y="42"/>
      <point x="291" y="35"/>
      <point x="264" y="35" type="curve" smooth="yes"/>
      <point x="207" y="35"/>
      <point x="168" y="68"/>
    </contour>
    <contour>
      <point x="146" y="675" type="move" name="top"/>
    </contour>
    <contour>
      <point x="276" y="681" type="move" name="right"/>
    </contour>
    <contour>
      <point x="230" y="0" type="move" name="bottom"/>
    </contour>
  </outline>
</glyph>
<glyph name="x" format="1">
  <advance width="558"/>
  <unicode hex="0078"/>
  <outline>
    <contour>
      <point x="544" y="0" type="line"/>
      <point x="544" y="37" type="line"/>
      <point x="543" y="37" type="line"/>
      <point x="503" y="37"/>
      <point x="486" y="45"/>
      <point x="465" y="71" type="curve" smooth="yes"/>
      <point x="303" y="276" type="line"/>
      <point x="299" y="280" type="line"/>
      <point x="157" y="463" type="line"/>
      <point x="157" y="469"/>
      <point x="203" y="471"/>
      <point x="244" y="471" type="curve" smooth="yes"/>
      <point x="246" y="471" type="line"/>
      <point x="246" y="508" type="line"/>
      <point x="25" y="508" type="line"/>
      <point x="25" y="470" type="line"/>
      <point x="26" y="470" type="line"/>
      <point x="64" y="470"/>
      <point x="82" y="465"/>
      <point x="98" y="444" type="curve" smooth="yes"/>
      <point x="253" y="245" type="line"/>
      <point x="257" y="242" type="line"/>
      <point x="412" y="46" type="line"/>
      <point x="412" y="39"/>
      <point x="364" y="37"/>
      <point x="322" y="37" type="curve" smooth="yes"/>
      <point x="320" y="37" type="line"/>
      <point x="320" y="0" type="line"/>
    </contour>
    <contour>
      <point x="303" y="246" type="line"/>
      <point x="448" y="426" type="line" smooth="yes"/>
      <point x="475" y="461"/>
      <point x="500" y="471"/>
      <point x="534" y="471" type="curve"/>
      <point x="535" y="471" type="line"/>
      <point x="535" y="508" type="line"/>
      <point x="329" y="508" type="line"/>
      <point x="329" y="471" type="line"/>
      <point x="332" y="471" type="line" smooth="yes"/>
      <point x="369" y="471"/>
      <point x="413" y="463"/>
      <point x="413" y="451" type="curve"/>
      <point x="275" y="277" type="line"/>
    </contour>
    <contour>
      <point x="13" y="0" type="line"/>
      <point x="220" y="0" type="line"/>
      <point x="220" y="37" type="line"/>
      <point x="218" y="37" type="line" smooth="yes"/>
      <point x="179" y="37"/>
      <point x="136" y="45"/>
      <point x="136" y="57" type="curve"/>
      <point x="282" y="240" type="line"/>
      <point x="250" y="267" type="line"/>
      <point x="94" y="75" type="line" smooth="yes"/>
      <point x="72" y="47"/>
      <point x="43" y="37"/>
      <point x="14" y="37" type="curve"/>
      <point x="13" y="37" type="line"/>
    </contour>
  </outline>
</glyph>
<glyph name="z" format="1">
  <advance width="459"/>
  <unicode hex="007A"/>
  <outline>
    <contour>
      <point x="75" y="42" type="line"/>
      <point x="90" y="25" type="line"/>
      <point x="422" y="467" type="line"/>
      <point x="422" y="508" type="line"/>
      <point x="54" y="508" type="line"/>
      <point x="54" y="355" type="line"/>
      <point x="93" y="355" type="line"/>
      <point x="102" y="424" type="line" smooth="yes"/>
      <point x="107" y="460"/>
      <point x="140" y="467"/>
      <point x="227" y="467" type="curve" smooth="yes"/>
      <point x="380" y="467" type="line"/>
      <point x="364" y="481" type="line"/>
      <point x="36" y="46" type="line"/>
      <point x="36" y="0" type="line"/>
      <point x="434" y="0" type="line"/>
      <point x="434" y="168" type="line"/>
      <point x="394" y="168" type="line"/>
      <point x="384" y="87" type="line" smooth="yes"/>
      <point x="379" y="49"/>
      <point x="345" y="42"/>
      <point x="259" y="42" type="curve" smooth="yes"/>
    </contour>
    <contour>
      <point x="234" y="551" type="move" name="top"/>
    </contour>
    <contour>
      <point x="253" y="0" type="move" name="bottom"/>
    </contour>
  </outline>
</glyph>
<glyph name="braceleft" format="1">
  <advance width="329"/>
  <unicode hex="007B"/>
  <outline>
    <contour>
      <point x="236" y="237" type="curve" smooth="yes"/>
      <point x="236" y="266"/>
      <point x="220" y="277"/>
      <point x="111" y="299" type="curve"/>
      <point x="111" y="304" type="line"/>
      <point x="220" y="326"/>
      <point x="236" y="337"/>
      <point x="236" y="366" type="curve" smooth="yes"/>
      <point x="236" y="403"/>
      <point x="135" y="525"/>
      <point x="135" y="608" type="curve" smooth="yes"/>
      <point x="135" y="681"/>
      <point x="197" y="714"/>
      <point x="309" y="714" type="curve"/>
      <point x="295" y="750" type="line"/>
      <point x="180" y="751"/>
      <point x="71" y="720"/>
      <point x="71" y="613" type="curve" smooth="yes"/>
      <point x="71" y="532"/>
      <point x="152" y="430"/>
      <point x="194" y="353" type="curve"/>
      <point x="205" y="365" type="line"/>
      <point x="50" y="316" type="line"/>
      <point x="50" y="287" type="line"/>
      <point x="205" y="238" type="line"/>
      <point x="194" y="250" type="line"/>
      <point x="152" y="173"/>
      <point x="71" y="71"/>
      <point x="71" y="-10" type="curve" smooth="yes"/>
      <point x="71" y="-117"/>
      <point x="180" y="-148"/>
      <point x="295" y="-147" type="curve"/>
      <point x="309" y="-111" type="line"/>
      <point x="197" y="-111"/>
      <point x="135" y="-78"/>
      <point x="135" y="-5" type="curve" smooth="yes"/>
      <point x="135" y="78"/>
      <point x="236" y="200"/>
    </contour>
  </outline>
</glyph>
<glyph name="currency" format="1">
  <advance width="560"/>
  <unicode hex="00A4"/>
  <outline>
    <contour>
      <point x="428" y="375" type="curve" smooth="yes"/>
      <point x="428" y="283"/>
      <point x="369" y="222"/>
      <point x="280" y="222" type="curve" smooth="yes"/>
      <point x="191" y="222"/>
      <point x="132" y="284"/>
      <point x="132" y="375" type="curve" smooth="yes"/>
      <point x="132" y="466"/>
      <point x="191" y="528"/>
      <point x="280" y="528" type="curve" smooth="yes"/>
      <point x="369" y="528"/>
      <point x="428" y="466"/>
    </contour>
    <contour>
      <point x="73" y="375" type="curve" smooth="yes"/>
      <point x="73" y="256"/>
      <point x="165" y="171"/>
      <point x="280" y="171" type="curve" smooth="yes"/>
      <point x="395" y="171"/>
      <point x="487" y="256"/>
      <point x="487" y="375" type="curve" smooth="yes"/>
      <point x="487" y="494"/>
      <point x="395" y="580"/>
      <point x="280" y="580" type="curve" smooth="yes"/>
      <point x="165" y="580"/>
      <point x="73" y="494"/>
    </contour>
    <contour>
      <point x="27" y="592" type="line"/>
      <point x="130" y="489" type="line"/>
      <point x="175" y="520" type="line"/>
      <point x="65" y="630" type="line"/>
    </contour>
    <contour>
      <point x="533" y="592" type="line"/>
      <point x="495" y="630" type="line"/>
      <point x="385" y="520" type="line"/>
      <point x="430" y="489" type="line"/>
    </contour>
    <contour>
      <point x="27" y="157" type="line"/>
      <point x="65" y="119" type="line"/>
      <point x="175" y="229" type="line"/>
      <point x="130" y="260" type="line"/>
    </contour>
    <contour>
      <point x="533" y="157" type="line"/>
      <point x="430" y="260" type="line"/>
      <point x="385" y="229" type="line"/>
      <point x="495" y="119" type="line"/>
    </contour>
  </outline>
</glyph>
<glyph name="brokenbar" format="1">
  <advance width="280"/>
  <unicode hex="00A6"/>
  <outline>
    <contour>
      <point x="114" y="750" type="line"/>
      <point x="114" y="380" type="line"/>
      <point x="166" y="380" type="line"/>
      <point x="166" y="750" type="line"/>
    </contour>
    <contour>
      <point x="114" y="241" type="line"/>
      <point x="114" y="-129" type="line"/>
      <point x="166" y="-129" type="line"/>
      <point x="166" y="241" type="line"/>
    </contour>
  </outline>
</glyph>
<glyph name="section" format="1">
  <advance width="627"/>
  <unicode hex="00A7"/>
  <outline>
    <contour>
      <point x="284" y="427" type="line"/>
      <point x="161" y="430"/>
      <point x="53" y="383"/>
      <point x="53" y="282" type="curve" smooth="yes"/>
      <point x="53" y="178"/>
      <point x="157" y="134"/>
      <point x="257" y="91" type="curve" smooth="yes"/>
      <point x="360" y="46"/>
      <point x="452" y="20"/>
      <point x="452" y="-76" type="curve" smooth="yes"/>
      <point x="452" y="-151"/>
      <point x="392" y="-193"/>
      <point x="300" y="-193" type="curve" smooth="yes"/>
      <point x="214" y="-193"/>
      <point x="154" y="-165"/>
      <point x="114" y="-117" type="curve"/>
      <point x="112" y="-121"/>
      <point x="125" y="-155"/>
      <point x="155" y="-184" type="curve"/>
      <point x="155" y="-53" type="line"/>
      <point x="85" y="-53" type="line"/>
      <point x="85" y="-169" type="line"/>
      <point x="123" y="-201"/>
      <point x="198" y="-236"/>
      <point x="301" y="-236" type="curve" smooth="yes"/>
      <point x="418" y="-236"/>
      <point x="512" y="-171"/>
      <point x="512" y="-66" type="curve" smooth="yes"/>
      <point x="512" y="45"/>
      <point x="410" y="92"/>
      <point x="299" y="139" type="curve" smooth="yes"/>
      <point x="202" y="181"/>
      <point x="112" y="210"/>
      <point x="112" y="289" type="curve" smooth="yes"/>
      <point x="112" y="359"/>
      <point x="184" y="393"/>
      <point x="298" y="398" type="curve"/>
    </contour>
    <contour>
      <point x="386" y="62" type="line"/>
      <point x="498" y="78"/>
      <point x="572" y="129"/>
      <point x="572" y="218" type="curve" smooth="yes"/>
      <point x="572" y="324"/>
      <point x="467" y="367"/>
      <point x="353" y="415" type="curve" smooth="yes"/>
      <point x="262" y="454"/>
      <point x="173" y="484"/>
      <point x="173" y="569" type="curve" smooth="yes"/>
      <point x="173" y="633"/>
      <point x="225" y="677"/>
      <point x="320" y="677" type="curve" smooth="yes"/>
      <point x="401" y="677"/>
      <point x="447" y="643"/>
      <point x="476" y="600" type="curve"/>
      <point x="480" y="626"/>
      <point x="460" y="655"/>
      <point x="435" y="658" type="curve"/>
      <point x="435" y="557" type="line"/>
      <point x="503" y="557" type="line"/>
      <point x="503" y="657" type="line"/>
      <point x="476" y="685"/>
      <point x="411" y="720"/>
      <point x="319" y="720" type="curve" smooth="yes"/>
      <point x="201" y="720"/>
      <point x="113" y="659"/>
      <point x="113" y="566" type="curve" smooth="yes"/>
      <point x="113" y="457"/>
      <point x="213" y="408"/>
      <point x="315" y="365" type="curve" smooth="yes"/>
      <point x="419" y="322"/>
      <point x="513" y="285"/>
      <point x="513" y="210" type="curve" smooth="yes"/>
      <point x="513" y="150"/>
      <point x="466" y="116"/>
      <point x="374" y="97" type="curve"/>
    </contour>
  </outline>
</glyph>
<glyph name="copyright" format="1">
  <advance width="840"/>
  <unicode hex="00A9"/>
  <outline>
    <contour>
      <point x="421" y="526" type="curve" smooth="yes"/>
      <point x="487" y="526"/>
      <point x="529" y="487"/>
      <point x="546" y="426" type="curve"/>
      <point x="590" y="426" type="line"/>
      <point x="590" y="552" type="line"/>
      <point x="557" y="552" type="line"/>
      <point x="547" y="448" type="line"/>
      <point x="549" y="449"/>
      <point x="562" y="446"/>
      <point x="569" y="443" type="curve"/>
      <point x="554" y="521"/>
      <point x="491" y="563"/>
      <point x="420" y="563" type="curve" smooth="yes"/>
      <point x="309" y="563"/>
      <point x="223" y="476"/>
      <point x="223" y="354" type="curve" smooth="yes"/>
      <point x="223" y="231"/>
      <point x="310" y="147"/>
      <point x="427" y="147" type="curve" smooth="yes"/>
      <point x="518" y="147"/>
      <point x="585" y="208"/>
      <point x="602" y="282" type="curve"/>
      <point x="569" y="296" type="line"/>
      <point x="551" y="233"/>
      <point x="505" y="184"/>
      <point x="431" y="184" type="curve" smooth="yes"/>
      <point x="340" y="184"/>
      <point x="282" y="251"/>
      <point x="282" y="354" type="curve" smooth="yes"/>
      <point x="282" y="462"/>
      <point x="342" y="526"/>
    </contour>
    <contour>
      <point x="86" y="355" type="curve" smooth="yes"/>
      <point x="86" y="548"/>
      <point x="227" y="699"/>
      <point x="420" y="699" type="curve" smooth="yes"/>
      <point x="613" y="699"/>
      <point x="754" y="548"/>
      <point x="754" y="355" type="curve" smooth="yes"/>
      <point x="754" y="162"/>
      <point x="614" y="11"/>
      <point x="420" y="11" type="curve" smooth="yes"/>
      <point x="227" y="11"/>
      <point x="86" y="161"/>
    </contour>
    <contour>
      <point x="40" y="355" type="curve" smooth="yes"/>
      <point x="40" y="138"/>
      <point x="205" y="-28"/>
      <point x="420" y="-28" type="curve" smooth="yes"/>
      <point x="635" y="-28"/>
      <point x="800" y="138"/>
      <point x="800" y="355" type="curve" smooth="yes"/>
      <point x="800" y="572"/>
      <point x="635" y="738"/>
      <point x="420" y="738" type="curve" smooth="yes"/>
      <point x="205" y="738"/>
      <point x="40" y="572"/>
    </contour>
  </outline>
</glyph>
<glyph name="ordfeminine" format="1">
  <advance width="467"/>
  <unicode hex="00AA"/>
  <outline>
    <contour>
      <point x="315" y="558" type="line"/>
      <point x="142" y="541"/>
      <point x="54" y="506"/>
      <point x="54" y="419" type="curve" smooth="yes"/>
      <point x="54" y="349"/>
      <point x="105" y="310"/>
      <point x="179" y="310" type="curve" smooth="yes"/>
      <point x="247" y="310"/>
      <point x="294" y="354"/>
      <point x="315" y="405" type="curve"/>
      <point x="345" y="445"/>
      <point x="309" y="441"/>
      <point x="305" y="441" type="curve"/>
      <point x="282" y="388"/>
      <point x="248" y="348"/>
      <point x="193" y="348" type="curve" smooth="yes"/>
      <point x="146" y="348"/>
      <point x="117" y="376"/>
      <point x="117" y="419" type="curve" smooth="yes"/>
      <point x="117" y="478"/>
      <point x="173" y="514"/>
      <point x="314" y="523" type="curve"/>
    </contour>
    <contour>
      <point x="303" y="320" type="line"/>
      <point x="421" y="320" type="line"/>
      <point x="421" y="354" type="line"/>
      <point x="421" y="354" type="line"/>
      <point x="386" y="354"/>
      <point x="358" y="358"/>
      <point x="358" y="383" type="curve" smooth="yes"/>
      <point x="358" y="598" type="line" smooth="yes"/>
      <point x="358" y="691"/>
      <point x="291" y="720"/>
      <point x="218" y="720" type="curve" smooth="yes"/>
      <point x="151" y="720"/>
      <point x="99" y="696"/>
      <point x="77" y="668" type="curve"/>
      <point x="77" y="608" type="line"/>
      <point x="138" y="608" type="line"/>
      <point x="138" y="678" type="line"/>
      <point x="124" y="675"/>
      <point x="102" y="653"/>
      <point x="105" y="626" type="curve"/>
      <point x="123" y="660"/>
      <point x="164" y="683"/>
      <point x="216" y="683" type="curve" smooth="yes"/>
      <point x="268" y="683"/>
      <point x="298" y="661"/>
      <point x="298" y="593" type="curve" smooth="yes"/>
      <point x="298" y="397" type="line"/>
      <point x="303" y="395" type="line"/>
    </contour>
  </outline>
</glyph>
<glyph name="logicalnot" format="1">
  <advance width="560"/>
  <unicode hex="00AC"/>
  <outline>
    <contour>
      <point x="422" y="346" type="line"/>
      <point x="422" y="167" type="line"/>
      <point x="471" y="167" type="line"/>
      <point x="471" y="366" type="line"/>
      <point x="89" y="366" type="line"/>
      <point x="89" y="320" type="line"/>
      <point x="454" y="320" type="line"/>
    </contour>
  </outline>
</glyph>
<glyph name="multiply" format="1">
  <advance width="560"/>
  <unicode hex="00D7"/>
  <outline>
    <contour>
      <point x="129" y="528" type="line"/>
      <point x="94" y="493" type="line"/>
      <point x="433" y="153" type="line"/>
      <point x="466" y="188" type="line"/>
    </contour>
    <contour>
      <point x="432" y="528" type="line"/>
      <point x="94" y="188" type="line"/>
      <point x="128" y="153" type="line"/>
      <point x="466" y="493" type="line"/>
    </contour>
  </outline>
</glyph>
<glyph name="Oslash" format="1">
  <advance width="768"/>
  <unicode hex="00D8"/>
  <outline>
    <contour>
      <point x="689" y="722" type="line"/>
      <point x="6" y="-12" type="line"/>
      <point x="67" y="-12" type="line"/>
      <point x="750" y="722" type="line"/>
    </contour>
    <contour>
      <point x="384" y="-10" type="curve" smooth="yes"/>
      <point x="575" y="-10"/>
      <point x="722" y="139"/>
      <point x="722" y="355" type="curve" smooth="yes"/>
      <point x="722" y="572"/>
      <point x="575" y="720"/>
      <point x="384" y="720" type="curve" smooth="yes"/>
      <point x="194" y="720"/>
      <point x="47" y="572"/>
      <point x="47" y="355" type="curve" smooth="yes"/>
      <point x="47" y="139"/>
      <point x="194" y="-10"/>
    </contour>
    <contour>
      <point x="384" y="34" type="curve" smooth="yes"/>
      <point x="218" y="34"/>
      <point x="117" y="144"/>
      <point x="117" y="355" type="curve" smooth="yes"/>
      <point x="117" y="552"/>
      <point x="228" y="676"/>
      <point x="384" y="676" type="curve" smooth="yes"/>
      <point x="550" y="676"/>
      <point x="652" y="566"/>
      <point x="652" y="355" type="curve" smooth="yes"/>
      <point x="652" y="158"/>
      <point x="540" y="34"/>
    </contour>
    <contour>
      <point x="380" y="731" type="move" name="top"/>
    </contour>
  </outline>
</glyph>
<glyph name="Thorn" format="1">
  <advance width="616"/>
  <unicode hex="00DE"/>
  <outline>
    <contour>
      <point x="310" y="710" type="line"/>
      <point x="45" y="710" type="line"/>
      <point x="45" y="672" type="line"/>
      <point x="56" y="672" type="line" smooth="yes"/>
      <point x="105" y="672"/>
      <point x="141" y="665"/>
      <point x="141" y="636" type="curve" smooth="yes"/>
      <point x="141" y="74" type="line" smooth="yes"/>
      <point x="141" y="45"/>
      <point x="105" y="38"/>
      <point x="56" y="38" type="curve" smooth="yes"/>
      <point x="45" y="38" type="line"/>
      <point x="45" y="0" type="line"/>
      <point x="310" y="0" type="line"/>
      <point x="310" y="38" type="line"/>
      <point x="283" y="38" type="line" smooth="yes"/>
      <point x="249" y="38"/>
      <point x="206" y="41"/>
      <point x="206" y="48" type="curve" smooth="yes"/>
      <point x="206" y="662" type="line" smooth="yes"/>
      <point x="206" y="669"/>
      <point x="249" y="672"/>
      <point x="283" y="672" type="curve" smooth="yes"/>
      <point x="310" y="672" type="line"/>
    </contour>
    <contour>
      <point x="170" y="157" type="line"/>
      <point x="324" y="157" type="line" smooth="yes"/>
      <point x="489" y="157"/>
      <point x="575" y="241"/>
      <point x="575" y="362" type="curve" smooth="yes"/>
      <point x="575" y="483"/>
      <point x="493" y="560"/>
      <point x="329" y="560" type="curve" smooth="yes"/>
      <point x="178" y="560" type="line"/>
      <point x="170" y="517" type="line"/>
      <point x="328" y="517" type="line" smooth="yes"/>
      <point x="452" y="517"/>
      <point x="505" y="459"/>
      <point x="505" y="361" type="curve" smooth="yes"/>
      <point x="505" y="264"/>
      <point x="452" y="200"/>
      <point x="323" y="200" type="curve" smooth="yes"/>
      <point x="170" y="200" type="line"/>
    </contour>
  </outline>
</glyph>
<glyph name="ae" format="1">
  <advance width="841"/>
  <unicode hex="00E6"/>
  <outline>
    <contour>
      <point x="400" y="290" type="line"/>
      <point x="170" y="274"/>
      <point x="54" y="231"/>
      <point x="54" y="120" type="curve" smooth="yes"/>
      <point x="54" y="39"/>
      <point x="120" y="-11"/>
      <point x="214" y="-11" type="curve" smooth="yes"/>
      <point x="311" y="-11"/>
      <point x="384" y="50"/>
      <point x="422" y="142" type="curve"/>
      <point x="444" y="172"/>
      <point x="403" y="177"/>
      <point x="395" y="178" type="curve"/>
      <point x="363" y="92"/>
      <point x="304" y="32"/>
      <point x="224" y="32" type="curve" smooth="yes"/>
      <point x="157" y="32"/>
      <point x="120" y="66"/>
      <point x="120" y="121" type="curve" smooth="yes"/>
      <point x="120" y="204"/>
      <point x="205" y="236"/>
      <point x="399" y="251" type="curve"/>
    </contour>
    <contour>
      <point x="608" y="-12" type="curve" smooth="yes"/>
      <point x="703" y="-12"/>
      <point x="762" y="36"/>
      <point x="800" y="102" type="curve"/>
      <point x="765" y="134" type="line"/>
      <point x="736" y="85"/>
      <point x="692" y="31"/>
      <point x="609" y="31" type="curve" smooth="yes"/>
      <point x="510" y="31"/>
      <point x="435" y="110"/>
      <point x="435" y="249" type="curve" smooth="yes"/>
      <point x="435" y="390"/>
      <point x="504" y="476"/>
      <point x="597" y="476" type="curve" smooth="yes"/>
      <point x="689" y="476"/>
      <point x="731" y="407"/>
      <point x="735" y="265" type="curve"/>
      <point x="757" y="289" type="line"/>
      <point x="405" y="289" type="line"/>
      <point x="406" y="247" type="line"/>
      <point x="802" y="247" type="line"/>
      <point x="801" y="425"/>
      <point x="730" y="518"/>
      <point x="598" y="518" type="curve" smooth="yes"/>
      <point x="494" y="518"/>
      <point x="429" y="451"/>
      <point x="396" y="340" type="curve"/>
      <point x="384" y="328"/>
      <point x="371" y="292"/>
      <point x="371" y="251" type="curve" smooth="yes"/>
      <point x="371" y="90"/>
      <point x="475" y="-12"/>
    </contour>
    <contour>
      <point x="256" y="518" type="curve" smooth="yes"/>
      <point x="171" y="518"/>
      <point x="112" y="484"/>
      <point x="84" y="460" type="curve"/>
      <point x="84" y="370" type="line"/>
      <point x="149" y="370" type="line"/>
      <point x="149" y="463" type="line"/>
      <point x="125" y="457"/>
      <point x="110" y="433"/>
      <point x="114" y="410" type="curve"/>
      <point x="140" y="446"/>
      <point x="183" y="475"/>
      <point x="254" y="475" type="curve" smooth="yes"/>
      <point x="330" y="475"/>
      <point x="371" y="445"/>
      <point x="371" y="350" type="curve"/>
      <point x="371" y="271" type="line"/>
      <point x="425" y="354" type="line"/>
      <point x="425" y="475"/>
      <point x="355" y="518"/>
    </contour>
    <contour>
      <point x="424" y="555" type="move" name="top"/>
    </contour>
  </outline>
</glyph>
<glyph name="eogonek" format="1">
  <advance width="529"/>
  <unicode hex="0119"/>
  <outline>
    <contour>
      <point x="374" y="26" type="line"/>
      <point x="285" y="-24"/>
      <point x="213" y="-73"/>
      <point x="213" y="-142" type="curve" smooth="yes"/>
      <point x="213" y="-200"/>
      <point x="257" y="-234"/>
      <point x="314" y="-234" type="curve" smooth="yes"/>
      <point x="361" y="-234"/>
      <point x="391" y="-214"/>
      <point x="417" y="-185" type="curve"/>
      <point x="394" y="-158" type="line"/>
      <point x="376" y="-176"/>
      <point x="356" y="-194"/>
      <point x="327" y="-194" type="curve" smooth="yes"/>
      <point x="299" y="-194"/>
      <point x="276" y="-175"/>
      <point x="276" y="-138" type="curve" smooth="yes"/>
      <point x="276" y="-74"/>
      <point x="339" y="-32"/>
      <point x="419" y="27" type="curve" smooth="yes"/>
      <point x="453" y="51"/>
      <point x="471" y="75"/>
      <point x="486" y="102" type="curve"/>
      <point x="451" y="134" type="line"/>
      <point x="423" y="84"/>
      <point x="376" y="31"/>
      <point x="290" y="31" type="curve" smooth="yes"/>
      <point x="188" y="31"/>
      <point x="110" y="110"/>
      <point x="110" y="249" type="curve" smooth="yes"/>
      <point x="110" y="389"/>
      <point x="181" y="475"/>
      <point x="275" y="475" type="curve" smooth="yes"/>
      <point x="373" y="475"/>
      <point x="418" y="407"/>
      <point x="421" y="265" type="curve"/>
      <point x="443" y="284" type="line"/>
      <point x="85" y="284" type="line"/>
      <point x="86" y="242" type="line"/>
      <point x="488" y="242" type="line"/>
      <point x="487" y="423"/>
      <point x="414" y="518"/>
      <point x="275" y="518" type="curve" smooth="yes"/>
      <point x="145" y="518"/>
      <point x="45" y="409"/>
      <point x="45" y="251" type="curve" smooth="yes"/>
      <point x="45" y="90"/>
      <point x="152" y="-12"/>
      <point x="289" y="-12" type="curve" smooth="yes"/>
      <point x="322" y="-12"/>
      <point x="351" y="-7"/>
      <point x="375" y="3" type="curve"/>
    </contour>
  </outline>
</glyph>
<glyph name="Ldot" format="1">
  <advance width="600"/>
  <unicode hex="013F"/>
  <outline>
    <contour>
      <point x="306" y="710" type="line"/>
      <point x="306" y="672" type="line"/>
      <point x="295" y="672" type="line" smooth="yes"/>
      <point x="243" y="672"/>
      <point x="206" y="665"/>
      <point x="206" y="636" type="curve" smooth="yes"/>
      <point x="206" y="44" type="line"/>
      <point x="375" y="44" type="line" smooth="yes"/>
      <point x="461" y="44"/>
      <point x="496" y="51"/>
      <point x="499" y="87" type="curve" smooth="yes"/>
      <point x="509" y="209" type="line"/>
      <point x="550" y="209" type="line"/>
      <point x="550" y="0" type="line"/>
      <point x="45" y="0" type="line"/>
      <point x="45" y="38" type="line"/>
      <point x="56" y="38" type="line" smooth="yes"/>
      <point x="105" y="38"/>
      <point x="141" y="45"/>
      <point x="141" y="74" type="curve" smooth="yes"/>
      <point x="141" y="636" type="line" smooth="yes"/>
      <point x="141" y="665"/>
      <point x="105" y="672"/>
      <point x="56" y="672" type="curve" smooth="yes"/>
      <point x="45" y="672" type="line"/>
      <point x="45" y="710" type="line"/>
    </contour>
    <component base="periodcentered" xOffset="375" yOffset="52"/>
  </outline>
</glyph>
<glyph name="Eng" format="1">
  <advance width="778"/>
  <unicode hex="014A"/>
  <outline>
    <contour>
      <point x="591" y="22" type="line"/>
      <point x="591" y="-17" type="line" smooth="yes"/>
      <point x="591" y="-127"/>
      <point x="539" y="-166"/>
      <point x="466" y="-166" type="curve" smooth="yes"/>
      <point x="422" y="-166"/>
      <point x="387" y="-156"/>
      <point x="361" y="-147" type="curve"/>
      <point x="361" y="-194" type="line"/>
      <point x="382" y="-203"/>
      <point x="423" y="-212"/>
      <point x="467" y="-212" type="curve" smooth="yes"/>
      <point x="556" y="-212"/>
      <point x="639" y="-159"/>
      <point x="639" y="-17" type="curve" smooth="yes"/>
      <point x="639" y="631" type="line" smooth="yes"/>
      <point x="639" y="660"/>
      <point x="675" y="672"/>
      <point x="724" y="672" type="curve" smooth="yes"/>
      <point x="736" y="672" type="line"/>
      <point x="736" y="710" type="line"/>
      <point x="485" y="710" type="line"/>
      <point x="485" y="672" type="line"/>
      <point x="499" y="672" type="line" smooth="yes"/>
      <point x="542" y="672"/>
      <point x="591" y="664"/>
      <point x="591" y="657" type="curve" smooth="yes"/>
      <point x="591" y="56" type="line"/>
      <point x="612" y="73" type="line"/>
      <point x="231" y="710" type="line"/>
      <point x="45" y="710" type="line"/>
      <point x="45" y="672" type="line"/>
      <point x="56" y="672" type="line" smooth="yes"/>
      <point x="105" y="672"/>
      <point x="141" y="665"/>
      <point x="141" y="636" type="curve" smooth="yes"/>
      <point x="141" y="79" type="line" smooth="yes"/>
      <point x="141" y="50"/>
      <point x="105" y="38"/>
      <point x="56" y="38" type="curve" smooth="yes"/>
      <point x="45" y="38" type="line"/>
      <point x="45" y="0" type="line"/>
      <point x="296" y="0" type="line"/>
      <point x="296" y="38" type="line"/>
      <point x="282" y="38" type="line" smooth="yes"/>
      <point x="239" y="38"/>
      <point x="190" y="46"/>
      <point x="190" y="53" type="curve" smooth="yes"/>
      <point x="190" y="691" type="line"/>
      <point x="175" y="687" type="line"/>
      <point x="617" y="-56" type="line"/>
    </contour>
  </outline>
</glyph>
<glyph name="eng" format="1">
  <advance width="598"/>
  <unicode hex="014B"/>
  <outline>
    <contour>
      <point x="36" y="0" type="line"/>
      <point x="258" y="0" type="line"/>
      <point x="258" y="35" type="line"/>
      <point x="255" y="35" type="line" smooth="yes"/>
      <point x="227" y="35"/>
      <point x="183" y="38"/>
      <point x="183" y="45" type="curve" smooth="yes"/>
      <point x="183" y="395" type="line"/>
      <point x="179" y="395" type="line"/>
      <point x="179" y="508" type="line"/>
      <point x="36" y="508" type="line"/>
      <point x="36" y="473" type="line"/>
      <point x="46" y="471" type="line" smooth="yes"/>
      <point x="96" y="461"/>
      <point x="120" y="455"/>
      <point x="120" y="426" type="curve" smooth="yes"/>
      <point x="120" y="71" type="line" smooth="yes"/>
      <point x="120" y="42"/>
      <point x="86" y="35"/>
      <point x="38" y="35" type="curve" smooth="yes"/>
      <point x="36" y="35" type="line"/>
    </contour>
    <contour>
      <point x="511" y="357" type="line" smooth="yes"/>
      <point x="511" y="468"/>
      <point x="452" y="518"/>
      <point x="358" y="518" type="curve" smooth="yes"/>
      <point x="265" y="518"/>
      <point x="204" y="465"/>
      <point x="138" y="356" type="curve"/>
      <point x="157" y="328" type="line"/>
      <point x="209" y="419"/>
      <point x="270" y="471"/>
      <point x="347" y="471" type="curve" smooth="yes"/>
      <point x="423" y="471"/>
      <point x="448" y="432"/>
      <point x="448" y="346" type="curve"/>
      <point x="448" y="-61" type="line" smooth="yes"/>
      <point x="448" y="-159"/>
      <point x="408" y="-190"/>
      <point x="346" y="-190" type="curve" smooth="yes"/>
      <point x="313" y="-190"/>
      <point x="287" y="-183"/>
      <point x="264" y="-175" type="curve"/>
      <point x="264" y="-223" type="line"/>
      <point x="283" y="-230"/>
      <point x="312" y="-236"/>
      <point x="347" y="-236" type="curve" smooth="yes"/>
      <point x="428" y="-236"/>
      <point x="511" y="-199"/>
      <point x="511" y="-61" type="curve" smooth="yes"/>
    </contour>
  </outline>
</glyph>
<glyph name="OE" format="1">
  <advance width="1001"/>
  <unicode hex="0152"/>
  <outline>
    <contour>
      <point x="530" y="43" type="line"/>
      <point x="422" y="43" type="line" smooth="yes"/>
      <point x="228" y="43"/>
      <point x="116" y="155"/>
      <point x="116" y="353" type="curve" smooth="yes"/>
      <point x="116" y="551"/>
      <point x="228" y="667"/>
      <point x="422" y="667" type="curve" smooth="yes"/>
      <point x="530" y="667" type="line"/>
    </contour>
    <contour>
      <point x="944" y="0" type="line"/>
      <point x="944" y="202" type="line"/>
      <point x="903" y="202" type="line"/>
      <point x="894" y="87" type="line" smooth="yes"/>
      <point x="891" y="51"/>
      <point x="855" y="44"/>
      <point x="769" y="44" type="curve" smooth="yes"/>
      <point x="595" y="44" type="line"/>
      <point x="595" y="666" type="line"/>
      <point x="740" y="666" type="line" smooth="yes"/>
      <point x="826" y="666"/>
      <point x="861" y="659"/>
      <point x="865" y="623" type="curve" smooth="yes"/>
      <point x="874" y="533" type="line"/>
      <point x="914" y="533" type="line"/>
      <point x="914" y="710" type="line"/>
      <point x="422" y="710" type="line" smooth="yes"/>
      <point x="191" y="710"/>
      <point x="47" y="569"/>
      <point x="47" y="353" type="curve" smooth="yes"/>
      <point x="47" y="136"/>
      <point x="191" y="0"/>
      <point x="422" y="0" type="curve" smooth="yes"/>
    </contour>
    <contour>
      <point x="570" y="384" type="line"/>
      <point x="570" y="343" type="line"/>
      <point x="826" y="338" type="line"/>
      <point x="826" y="389" type="line"/>
    </contour>
  </outline>
</glyph>
<glyph name="tbar" format="1">
  <advance width="353"/>
  <unicode hex="0167"/>
  <outline>
    <contour>
      <point x="319" y="318" type="line"/>
      <point x="12" y="318" type="line"/>
      <point x="12" y="278" type="line"/>
      <point x="319" y="278" type="line"/>
    </contour>
    <component base="t"/>
  </outline>
</glyph>
<glyph name="Uhorn" format="1">
  <advance width="823"/>
  <unicode hex="01AF"/>
  <outline>
    <contour>
      <point x="511" y="710" type="line"/>
      <point x="511" y="672" type="line"/>
      <point x="520" y="672" type="line" smooth="yes"/>
      <point x="558" y="672"/>
      <point x="607" y="664"/>
      <point x="607" y="650" type="curve" smooth="yes"/>
      <point x="607" y="271" type="line" smooth="yes"/>
      <point x="607" y="99"/>
      <point x="521" y="40"/>
      <point x="407" y="40" type="curve" smooth="yes"/>
      <point x="292" y="40"/>
      <point x="205" y="98"/>
      <point x="205" y="271" type="curve" smooth="yes"/>
      <point x="205" y="662" type="line" smooth="yes"/>
      <point x="205" y="669"/>
      <point x="254" y="672"/>
      <point x="292" y="672" type="curve" smooth="yes"/>
      <point x="301" y="672" type="line"/>
      <point x="301" y="710" type="line"/>
      <point x="44" y="710" type="line"/>
      <point x="44" y="672" type="line"/>
      <point x="55" y="672" type="line" smooth="yes"/>
      <point x="104" y="672"/>
      <point x="140" y="665"/>
      <point x="140" y="636" type="curve" smooth="yes"/>
      <point x="140" y="271" type="line" smooth="yes"/>
      <point x="140" y="69"/>
      <point x="250" y="-10"/>
      <point x="399" y="-10" type="curve" smooth="yes"/>
      <point x="541" y="-10"/>
      <point x="655" y="69"/>
      <point x="655" y="271" type="curve" smooth="yes"/>
      <point x="655" y="633" type="line" smooth="yes"/>
      <point x="655" y="664"/>
      <point x="678" y="666"/>
      <point x="735" y="682" type="curve" smooth="yes"/>
      <point x="820" y="703"/>
      <point x="863" y="764"/>
      <point x="864" y="878" type="curve"/>
      <point x="803" y="878" type="line"/>
      <point x="799" y="744"/>
      <point x="766" y="710"/>
      <point x="619" y="710" type="curve" smooth="yes"/>
    </contour>
    <contour>
      <point x="413" y="663" type="move" name="top"/>
    </contour>
  </outline>
</glyph>
<glyph name="uhorn" format="1">
  <advance width="612"/>
  <unicode hex="01B0"/>
  <outline>
    <contour>
      <point x="168" y="508" type="line"/>
      <point x="20" y="508" type="line"/>
      <point x="20" y="471" type="line"/>
      <point x="27" y="470" type="line" smooth="yes"/>
      <point x="76" y="467"/>
      <point x="105" y="459"/>
      <point x="105" y="430" type="curve" smooth="yes"/>
      <point x="105" y="151" type="line" smooth="yes"/>
      <point x="105" y="40"/>
      <point x="164" y="-10"/>
      <point x="257" y="-10" type="curve" smooth="yes"/>
      <point x="350" y="-10"/>
      <point x="409" y="43"/>
      <point x="475" y="152" type="curve"/>
      <point x="456" y="180" type="line"/>
      <point x="404" y="89"/>
      <point x="345" y="37"/>
      <point x="268" y="37" type="curve" smooth="yes"/>
      <point x="193" y="37"/>
      <point x="168" y="75"/>
      <point x="168" y="162" type="curve"/>
    </contour>
    <contour>
      <point x="492" y="501" type="line"/>
      <point x="440" y="494"/>
      <point x="450" y="487"/>
      <point x="443" y="478" type="curve"/>
      <point x="578" y="484"/>
      <point x="625" y="545"/>
      <point x="629" y="683" type="curve"/>
      <point x="570" y="683" type="line"/>
      <point x="565" y="545"/>
      <point x="535" y="508"/>
      <point x="386" y="508" type="curve" smooth="yes"/>
      <point x="334" y="508" type="line"/>
      <point x="334" y="471" type="line"/>
      <point x="346" y="470" type="line"/>
      <point x="400" y="468"/>
      <point x="429" y="459"/>
      <point x="429" y="430" type="curve" smooth="yes"/>
      <point x="429" y="112" type="line"/>
      <point x="433" y="110" type="line"/>
      <point x="433" y="0" type="line"/>
      <point x="578" y="0" type="line"/>
      <point x="578" y="35" type="line"/>
      <point x="575" y="35" type="line" smooth="yes"/>
      <point x="527" y="35"/>
      <point x="492" y="42"/>
      <point x="492" y="71" type="curve" smooth="yes"/>
    </contour>
    <contour>
      <point x="282" y="545" type="move" name="top"/>
    </contour>
  </outline>
</glyph>
<glyph name="ring" format="1">
  <advance width="500"/>
  <unicode hex="02DA"/>
  <outline>
    <contour>
      <point x="190" y="674" type="curve" smooth="yes"/>
      <point x="190" y="716"/>
      <point x="216" y="738"/>
      <point x="250" y="738" type="curve" smooth="yes"/>
      <point x="284" y="738"/>
      <point x="310" y="716"/>
      <point x="310" y="674" type="curve" smooth="yes"/>
      <point x="310" y="631"/>
      <point x="284" y="610"/>
      <point x="250" y="610" type="curve" smooth="yes"/>
      <point x="216" y="610"/>
      <point x="190" y="631"/>
    </contour>
    <contour>
      <point x="357" y="674" type="curve" smooth="yes"/>
      <point x="357" y="734"/>
      <point x="309" y="768"/>
      <point x="250" y="768" type="curve" smooth="yes"/>
      <point x="191" y="768"/>
      <point x="143" y="734"/>
      <point x="143" y="674" type="curve" smooth="yes"/>
      <point x="143" y="614"/>
      <point x="191" y="579"/>
      <point x="250" y="579" type="curve" smooth="yes"/>
      <point x="309" y="579"/>
      <point x="357" y="614"/>
    </contour>
    <contour>
      <point x="250" y="526" type="move" name="_top"/>
    </contour>
  </outline>
</glyph>
<glyph name="ogonek" format="1">
  <advance width="600"/>
  <unicode hex="02DB"/>
  <outline>
    <contour>
      <point x="384" y="28" type="line"/>
      <point x="300" y="-22"/>
      <point x="233" y="-73"/>
      <point x="233" y="-142" type="curve" smooth="yes"/>
      <point x="233" y="-200"/>
      <point x="277" y="-234"/>
      <point x="334" y="-234" type="curve" smooth="yes"/>
      <point x="381" y="-234"/>
      <point x="412" y="-214"/>
      <point x="438" y="-185" type="curve"/>
      <point x="414" y="-158" type="line"/>
      <point x="396" y="-176"/>
      <point x="376" y="-194"/>
      <point x="348" y="-194" type="curve" smooth="yes"/>
      <point x="319" y="-194"/>
      <point x="297" y="-175"/>
      <point x="297" y="-138" type="curve" smooth="yes"/>
      <point x="297" y="-89"/>
      <point x="327" y="-48"/>
      <point x="408" y="4" type="curve"/>
    </contour>
    <contour>
      <point x="362" y="20" type="move" name="_right"/>
    </contour>
  </outline>
</glyph>
<glyph name="tilde" format="1">
  <advance width="500"/>
  <unicode hex="02DC"/>
  <outline>
    <contour>
      <point x="314" y="606" type="curve" smooth="yes"/>
      <point x="364" y="606"/>
      <point x="392" y="645"/>
      <point x="409" y="716" type="curve"/>
      <point x="372" y="729" type="line"/>
      <point x="359" y="684"/>
      <point x="348" y="656"/>
      <point x="322" y="656" type="curve" smooth="yes"/>
      <point x="281" y="656"/>
      <point x="252" y="729"/>
      <point x="186" y="729" type="curve" smooth="yes"/>
      <point x="134" y="729"/>
      <point x="107" y="692"/>
      <point x="94" y="618" type="curve"/>
      <point x="131" y="605" type="line"/>
      <point x="139" y="653"/>
      <point x="151" y="680"/>
      <point x="179" y="680" type="curve" smooth="yes"/>
      <point x="216" y="680"/>
      <point x="242" y="606"/>
    </contour>
    <contour>
      <point x="250" y="516" type="move" name="_top"/>
    </contour>
  </outline>
</glyph>
<glyph name="commaaccentcomb" format="1">
  <unicode hex="0326"/>
  <outline>
    <contour>
      <point x="-310" y="-282" type="line"/>
      <point x="-260" y="-241"/>
      <point x="-235" y="-201"/>
      <point x="-235" y="-145" type="curve" smooth="yes"/>
      <point x="-235" y="-106"/>
      <point x="-257" y="-87"/>
      <point x="-286" y="-87" type="curve" smooth="yes"/>
      <point x="-311" y="-87"/>
      <point x="-330" y="-104"/>
      <point x="-330" y="-129" type="curve" smooth="yes"/>
      <point x="-330" y="-154"/>
      <point x="-312" y="-172"/>
      <point x="-282" y="-172" type="curve" smooth="yes"/>
      <point x="-271" y="-172"/>
      <point x="-262" y="-169"/>
      <point x="-256" y="-159" type="curve"/>
      <point x="-264" y="-157"/>
      <point x="-267" y="-155"/>
      <point x="-269" y="-158" type="curve"/>
      <point x="-270" y="-192"/>
      <point x="-303" y="-232"/>
      <point x="-350" y="-261" type="curve"/>
    </contour>
    <contour>
      <point x="-144" y="33" type="move" name="_bottom"/>
    </contour>
  </outline>
</glyph>
<glyph name="cedillacomb" format="1">
  <unicode hex="033C"/>
  <outline>
    <contour>
      <point x="-259" y="4" type="line"/>
      <point x="-307" y="4" type="line"/>
      <point x="-339" y="-91" type="line"/>
      <point x="-320" y="-91" type="line" smooth="yes"/>
      <point x="-260" y="-91"/>
      <point x="-238" y="-114"/>
      <point x="-238" y="-147" type="curve" smooth="yes"/>
      <point x="-238" y="-180"/>
      <point x="-261" y="-200"/>
      <point x="-294" y="-200" type="curve" smooth="yes"/>
      <point x="-334" y="-200"/>
      <point x="-357" y="-175"/>
      <point x="-375" y="-155" type="curve"/>
      <point x="-404" y="-184" type="line"/>
      <point x="-381" y="-215"/>
      <point x="-347" y="-236"/>
      <point x="-293" y="-236" type="curve" smooth="yes"/>
      <point x="-234" y="-236"/>
      <point x="-182" y="-206"/>
      <point x="-182" y="-146" type="curve" smooth="yes"/>
      <point x="-182" y="-88"/>
      <point x="-236" y="-55"/>
      <point x="-308" y="-59" type="curve"/>
      <point x="-321" y="-79"/>
      <point x="-303" y="-77"/>
      <point x="-301" y="-72" type="curve"/>
    </contour>
    <contour>
      <point x="-132" y="34" type="move" name="_bottom"/>
    </contour>
  </outline>
</glyph>
<glyph name="uni20B8" format="1">
  <advance width="560"/>
  <unicode hex="20B8"/>
  <outline>
    <contour>
      <point x="248" y="74" type="line" smooth="yes"/>
      <point x="248" y="45"/>
      <point x="212" y="38"/>
      <point x="163" y="38" type="curve" smooth="yes"/>
      <point x="147" y="38" type="line"/>
      <point x="147" y="0" type="line"/>
      <point x="414" y="0" type="line"/>
      <point x="414" y="38" type="line"/>
      <point x="398" y="38" type="line" smooth="yes"/>
      <point x="349" y="38"/>
      <point x="313" y="45"/>
      <point x="313" y="74" type="curve" smooth="yes"/>
      <point x="313" y="523" type="line"/>
      <point x="357" y="523" type="line" smooth="yes"/>
      <point x="438" y="523"/>
      <point x="474" y="516"/>
      <point x="477" y="480" type="curve" smooth="yes"/>
      <point x="486" y="382" type="line"/>
      <point x="526" y="382" type="line"/>
      <point x="526" y="564" type="line"/>
      <point x="34" y="564" type="line"/>
      <point x="34" y="382" type="line"/>
      <point x="74" y="382" type="line"/>
      <point x="83" y="480" type="line" smooth="yes"/>
      <point x="86" y="516"/>
      <point x="122" y="523"/>
      <point x="203" y="523" type="curve" smooth="yes"/>
      <point x="248" y="523" type="line"/>
    </contour>
    <contour>
      <point x="34" y="710" type="line"/>
      <point x="34" y="670" type="line"/>
      <point x="526" y="670" type="line"/>
      <point x="526" y="710" type="line"/>
    </contour>
  </outline>
</glyph>
<glyph name="summation" format="1">
  <advance width="565"/>
  <unicode hex="2211"/>
  <outline>
    <contour>
      <point x="65" y="660" type="line"/>
      <point x="76" y="689" type="line"/>
      <point x="349" y="283" type="line"/>
      <point x="349" y="250" type="line"/>
      <point x="70" y="-200" type="line"/>
      <point x="67" y="-173" type="line"/>
      <point x="357" y="-173" type="line" smooth="yes"/>
      <point x="443" y="-173"/>
      <point x="479" y="-166"/>
      <point x="482" y="-130" type="curve" smooth="yes"/>
      <point x="491" y="-15" type="line"/>
      <point x="533" y="-15" type="line"/>
      <point x="533" y="-223" type="line"/>
      <point x="27" y="-223" type="line"/>
      <point x="27" y="-170" type="line"/>
      <point x="307" y="280" type="line"/>
      <point x="303" y="244" type="line"/>
      <point x="27" y="657" type="line"/>
      <point x="27" y="710" type="line"/>
      <point x="510" y="710" type="line"/>
      <point x="510" y="522" type="line"/>
      <point x="470" y="522" type="line"/>
      <point x="461" y="617" type="line" smooth="yes"/>
      <point x="458" y="653"/>
      <point x="422" y="660"/>
      <point x="336" y="660" type="curve" smooth="yes"/>
    </contour>
  </outline>
</glyph>
<glyph name="f_f_l" format="1">
  <advance width="978"/>
  <unicode hex="FB04"/>
  <outline>
    <contour>
      <point x="36" y="508" type="line"/>
      <point x="36" y="467" type="line"/>
      <point x="418" y="467" type="line"/>
      <point x="418" y="508" type="line"/>
    </contour>
    <contour>
      <point x="368" y="508" type="line"/>
      <point x="368" y="467" type="line"/>
      <point x="686" y="467" type="line"/>
      <point x="686" y="508" type="line"/>
    </contour>
    <contour>
      <point x="300" y="0" type="line"/>
      <point x="300" y="35" type="line"/>
      <point x="291" y="35" type="line" smooth="yes"/>
      <point x="241" y="35"/>
      <point x="203" y="38"/>
      <point x="203" y="45" type="curve" smooth="yes"/>
      <point x="203" y="568" type="line" smooth="yes"/>
      <point x="203" y="668"/>
      <point x="242" y="697"/>
      <point x="301" y="697" type="curve" smooth="yes"/>
      <point x="332" y="697"/>
      <point x="358" y="688"/>
      <point x="378" y="680" type="curve"/>
      <point x="378" y="727" type="line"/>
      <point x="361" y="733"/>
      <point x="331" y="737"/>
      <point x="303" y="737" type="curve" smooth="yes"/>
      <point x="215" y="737"/>
      <point x="140" y="693"/>
      <point x="140" y="568" type="curve" smooth="yes"/>
      <point x="140" y="71" type="line" smooth="yes"/>
      <point x="140" y="42"/>
      <point x="107" y="35"/>
      <point x="52" y="35" type="curve" smooth="yes"/>
      <point x="41" y="35" type="line"/>
      <point x="41" y="0" type="line"/>
    </contour>
    <contour>
      <point x="638" y="0" type="line"/>
      <point x="638" y="35" type="line"/>
      <point x="625" y="35" type="line" smooth="yes"/>
      <point x="574" y="35"/>
      <point x="535" y="38"/>
      <point x="535" y="45" type="curve" smooth="yes"/>
      <point x="535" y="584" type="line" smooth="yes"/>
      <point x="535" y="685"/>
      <point x="583" y="710"/>
      <point x="667" y="710" type="curve" smooth="yes"/>
      <point x="729" y="710"/>
      <point x="782" y="694"/>
      <point x="828" y="650" type="curve"/>
      <point x="833" y="705" type="line"/>
      <point x="796" y="729"/>
      <point x="741" y="752"/>
      <point x="668" y="752" type="curve" smooth="yes"/>
      <point x="557" y="752"/>
      <point x="472" y="709"/>
      <point x="472" y="584" type="curve"/>
      <point x="472" y="45" type="line" smooth="yes"/>
      <point x="472" y="38"/>
      <point x="434" y="35"/>
      <point x="381" y="35" type="curve" smooth="yes"/>
      <point x="373" y="35" type="line"/>
      <point x="373" y="0" type="line"/>
    </contour>
    <contour>
      <point x="951" y="0" type="line"/>
      <point x="951" y="35" type="line"/>
      <point x="949" y="35" type="line" smooth="yes"/>
      <point x="901" y="35"/>
      <point x="867" y="42"/>
      <point x="867" y="71" type="curve" smooth="yes"/>
      <point x="867" y="735" type="line"/>
      <point x="747" y="735" type="line"/>
      <point x="804" y="700" type="line"/>
      <point x="804" y="45" type="line" smooth="yes"/>
      <point x="804" y="38"/>
      <point x="759" y="35"/>
      <point x="731" y="35" type="curve" smooth="yes"/>
      <point x="720" y="35" type="line"/>
      <point x="720" y="0" type="line"/>
    </contour>
  </outline>
</glyph>
<glyph name="E.alt" format="1">
  <advance width="617"/>
  <outline>
    <contour>
      <point x="560" y="202" type="line"/>
      <point x="519" y="202" type="line"/>
      <point x="510" y="87" type="line" smooth="yes"/>
      <point x="507" y="51"/>
      <point x="471" y="44"/>
      <point x="385" y="44" type="curve" smooth="yes"/>
      <point x="205" y="44" type="line"/>
      <point x="205" y="666" type="line"/>
      <point x="356" y="666" type="line" smooth="yes"/>
      <point x="442" y="666"/>
      <point x="477" y="659"/>
      <point x="481" y="623" type="curve" smooth="yes"/>
      <point x="490" y="533" type="line"/>
      <point x="530" y="533" type="line"/>
      <point x="530" y="710" type="line"/>
      <point x="45" y="710" type="line"/>
      <point x="45" y="672" type="line"/>
      <point x="56" y="672" type="line" smooth="yes"/>
      <point x="105" y="672"/>
      <point x="141" y="665"/>
      <point x="141" y="636" type="curve" smooth="yes"/>
      <point x="141" y="74" type="line" smooth="yes"/>
      <point x="141" y="45"/>
      <point x="105" y="38"/>
      <point x="56" y="38" type="curve" smooth="yes"/>
      <point x="45" y="38" type="line"/>
      <point x="45" y="0" type="line"/>
      <point x="560" y="0" type="line"/>
    </contour>
    <contour>
      <point x="181" y="385" type="line"/>
      <point x="181" y="342" type="line"/>
      <point x="429" y="342" type="line"/>
      <point x="429" y="385" type="line"/>
    </contour>
    <contour>
      <point x="452" y="271" type="line"/>
      <point x="452" y="457" type="line"/>
      <point x="417" y="457" type="line"/>
      <point x="417" y="450" type="line" smooth="yes"/>
      <point x="417" y="415"/>
      <point x="407" y="385"/>
      <point x="377" y="385" type="curve"/>
      <point x="377" y="342" type="line"/>
      <point x="407" y="342"/>
      <point x="417" y="313"/>
      <point x="417" y="279" type="curve" smooth="yes"/>
      <point x="417" y="271" type="line"/>
    </contour>
  </outline>
</glyph>
<glyph name="baht" format="1">
  <advance width="561"/>
  <outline>
    <contour>
      <point x="259" y="790" type="line"/>
      <point x="259" y="688" type="line"/>
      <point x="261" y="677" type="line"/>
      <point x="261" y="33" type="line"/>
      <point x="259" y="23" type="line"/>
      <point x="259" y="-115" type="line"/>
      <point x="305" y="-115" type="line"/>
      <point x="305" y="24" type="line"/>
      <point x="303" y="35" type="line"/>
      <point x="303" y="677" type="line"/>
      <point x="305" y="687" type="line"/>
      <point x="305" y="790" type="line"/>
    </contour>
    <contour>
      <point x="288" y="705" type="curve"/>
      <point x="12" y="705" type="line"/>
      <point x="12" y="667" type="line"/>
      <point x="23" y="667" type="line" smooth="yes"/>
      <point x="61" y="667"/>
      <point x="89" y="660"/>
      <point x="89" y="631" type="curve" smooth="yes"/>
      <point x="89" y="79" type="line" smooth="yes"/>
      <point x="89" y="50"/>
      <point x="61" y="43"/>
      <point x="23" y="43" type="curve" smooth="yes"/>
      <point x="12" y="43" type="line"/>
      <point x="12" y="5" type="line"/>
      <point x="296" y="5" type="line" smooth="yes"/>
      <point x="447" y="5"/>
      <point x="529" y="80"/>
      <point x="529" y="200" type="curve" smooth="yes"/>
      <point x="529" y="313"/>
      <point x="442" y="385"/>
      <point x="265" y="385" type="curve"/>
      <point x="259" y="363" type="line"/>
      <point x="424" y="363"/>
      <point x="501" y="433"/>
      <point x="501" y="536" type="curve" smooth="yes"/>
      <point x="501" y="640"/>
      <point x="428" y="705"/>
    </contour>
    <contour>
      <point x="290" y="392" type="curve"/>
      <point x="150" y="392" type="line"/>
      <point x="150" y="663" type="line"/>
      <point x="290" y="663" type="line"/>
      <point x="394" y="663"/>
      <point x="437" y="618"/>
      <point x="437" y="534" type="curve" smooth="yes"/>
      <point x="437" y="454"/>
      <point x="398" y="392"/>
    </contour>
    <contour>
      <point x="296" y="352" type="line"/>
      <point x="414" y="352"/>
      <point x="464" y="288"/>
      <point x="464" y="202" type="curve" smooth="yes"/>
      <point x="464" y="102"/>
      <point x="413" y="46"/>
      <point x="297" y="46" type="curve" smooth="yes"/>
      <point x="150" y="46" type="line"/>
      <point x="150" y="352" type="line"/>
    </contour>
  </outline>
</glyph>
<glyph name="breve_grave.uc" format="1">
  <advance width="510"/>
  <outline>
    <contour>
      <point x="223" y="1021" type="curve" smooth="yes"/>
      <point x="299" y="934" type="line"/>
      <point x="299" y="916" type="line"/>
      <point x="278" y="916" type="line"/>
      <point x="183" y="975" type="line" smooth="yes"/>
      <point x="152" y="994"/>
      <point x="133" y="1010"/>
      <point x="133" y="1030" type="curve" smooth="yes"/>
      <point x="133" y="1047"/>
      <point x="146" y="1061"/>
      <point x="166" y="1061" type="curve" smooth="yes"/>
      <point x="187" y="1061"/>
      <point x="202" y="1046"/>
    </contour>
    <component base="breve.uc"/>
    <contour>
      <point x="251" y="744" type="move" name="_top"/>
    </contour>
  </outline>
</glyph>
<glyph name="cedi.proportional" format="1">
  <advance width="675"/>
  <outline>
    <contour>
      <point x="377" y="700" type="curve" smooth="yes"/>
      <point x="183" y="700"/>
      <point x="51" y="563"/>
      <point x="51" y="355" type="curve" smooth="yes"/>
      <point x="51" y="150"/>
      <point x="184" y="10"/>
      <point x="368" y="10" type="curve" smooth="yes"/>
      <point x="510" y="10"/>
      <point x="601" y="99"/>
      <point x="634" y="224" type="curve"/>
      <point x="589" y="246" type="line"/>
      <point x="561" y="138"/>
      <point x="491" y="55"/>
      <point x="370" y="55" type="curve" smooth="yes"/>
      <point x="219" y="55"/>
      <point x="119" y="174"/>
      <point x="119" y="355" type="curve" smooth="yes"/>
      <point x="119" y="544"/>
      <point x="220" y="657"/>
      <point x="377" y="657" type="curve" smooth="yes"/>
      <point x="479" y="657"/>
      <point x="543" y="615"/>
      <point x="575" y="565" type="curve"/>
      <point x="586" y="571"/>
      <point x="574" y="606"/>
      <point x="541" y="619" type="curve"/>
      <point x="541" y="503" type="line"/>
      <point x="613" y="503" type="line"/>
      <point x="613" y="614" type="line"/>
      <point x="577" y="652"/>
      <point x="495" y="700"/>
    </contour>
    <contour>
      <point x="342" y="790" type="line"/>
      <point x="342" y="680" type="line"/>
      <point x="342" y="671" type="line"/>
      <point x="342" y="35" type="line"/>
      <point x="342" y="29" type="line"/>
      <point x="342" y="-120" type="line"/>
      <point x="389" y="-120" type="line"/>
      <point x="389" y="30" type="line"/>
      <point x="389" y="36" type="line"/>
      <point x="389" y="675" type="line"/>
      <point x="389" y="680" type="line"/>
      <point x="389" y="790" type="line"/>
    </contour>
  </outline>
</glyph>
<glyph name="circumflex_acute" format="1">
  <advance width="510"/>
  <outline>
    <contour>
      <point x="412" y="823" type="curve" smooth="yes"/>
      <point x="363" y="707" type="line"/>
      <point x="363" y="691" type="line"/>
      <point x="385" y="691" type="line"/>
      <point x="467" y="788" type="line" smooth="yes"/>
      <point x="483" y="807"/>
      <point x="494" y="825"/>
      <point x="494" y="841" type="curve" smooth="yes"/>
      <point x="494" y="859"/>
      <point x="481" y="872"/>
      <point x="461" y="872" type="curve" smooth="yes"/>
      <point x="439" y="872"/>
      <point x="425" y="855"/>
    </contour>
    <component base="circumflex" xOffset="-10"/>
    <contour>
      <point x="233" y="558" type="move" name="_top"/>
    </contour>
  </outline>
</glyph>
<glyph name="circumflex_grave" format="1">
  <advance width="510"/>
  <outline>
    <contour>
      <point x="393" y="823" type="curve" smooth="yes"/>
      <point x="442" y="707" type="line"/>
      <point x="442" y="691" type="line"/>
      <point x="420" y="691" type="line"/>
      <point x="338" y="788" type="line" smooth="yes"/>
      <point x="322" y="807"/>
      <point x="311" y="825"/>
      <point x="311" y="841" type="curve" smooth="yes"/>
      <point x="311" y="859"/>
      <point x="324" y="872"/>
      <point x="344" y="872" type="curve" smooth="yes"/>
      <point x="366" y="872"/>
      <point x="380" y="855"/>
    </contour>
    <component base="circumflex"/>
    <contour>
      <point x="244" y="564" type="move" name="_top"/>
    </contour>
  </outline>
</glyph>
<glyph name="circumflex_tilde.uc" format="1">
  <advance width="500"/>
  <outline>
    <contour>
      <point x="287" y="861" type="line"/>
      <point x="396" y="761" type="line"/>
      <point x="396" y="749" type="line"/>
      <point x="359" y="749" type="line"/>
      <point x="227" y="827" type="line"/>
      <point x="255" y="827" type="line"/>
      <point x="126" y="749" type="line"/>
      <point x="99" y="749" type="line"/>
      <point x="99" y="761" type="line"/>
      <point x="207" y="861" type="line"/>
    </contour>
    <contour>
      <point x="309" y="894" type="curve" smooth="yes"/>
      <point x="354" y="894"/>
      <point x="381" y="926"/>
      <point x="399" y="983" type="curve"/>
      <point x="362" y="996" type="line"/>
      <point x="350" y="962"/>
      <point x="338" y="939"/>
      <point x="314" y="939" type="curve" smooth="yes"/>
      <point x="272" y="939"/>
      <point x="246" y="996"/>
      <point x="186" y="996" type="curve" smooth="yes"/>
      <point x="142" y="996"/>
      <point x="113" y="964"/>
      <point x="101" y="906" type="curve"/>
      <point x="138" y="892" type="line"/>
      <point x="147" y="930"/>
      <point x="157" y="952"/>
      <point x="183" y="952" type="curve" smooth="yes"/>
      <point x="218" y="952"/>
      <point x="243" y="894"/>
    </contour>
    <contour>
      <point x="241" y="694" type="move" name="_top"/>
    </contour>
  </outline>
</glyph>
<glyph name="colonsign" format="1">
  <advance width="560"/>
  <outline>
    <contour>
      <point x="323" y="700" type="curve" smooth="yes"/>
      <point x="146" y="700"/>
      <point x="25" y="564"/>
      <point x="25" y="355" type="curve" smooth="yes"/>
      <point x="25" y="150"/>
      <point x="143" y="10"/>
      <point x="311" y="10" type="curve" smooth="yes"/>
      <point x="440" y="10"/>
      <point x="517" y="102"/>
      <point x="546" y="230" type="curve"/>
      <point x="503" y="251" type="line"/>
      <point x="481" y="139"/>
      <point x="421" y="52"/>
      <point x="314" y="52" type="curve" smooth="yes"/>
      <point x="176" y="52"/>
      <point x="90" y="171"/>
      <point x="90" y="355" type="curve" smooth="yes"/>
      <point x="90" y="545"/>
      <point x="181" y="658"/>
      <point x="323" y="658" type="curve" smooth="yes"/>
      <point x="418" y="658"/>
      <point x="487" y="613"/>
      <point x="511" y="573" type="curve"/>
      <point x="520" y="575"/>
      <point x="507" y="618"/>
      <point x="475" y="625" type="curve"/>
      <point x="475" y="516" type="line"/>
      <point x="543" y="516" type="line"/>
      <point x="543" y="626" type="line"/>
      <point x="512" y="655"/>
      <point x="440" y="700"/>
    </contour>
    <contour>
      <point x="245" y="790" type="line"/>
      <point x="121" y="-120" type="line"/>
      <point x="165" y="-120" type="line"/>
      <point x="290" y="790" type="line"/>
    </contour>
    <contour>
      <point x="387" y="790" type="line"/>
      <point x="263" y="-120" type="line"/>
      <point x="307" y="-120" type="line"/>
      <point x="431" y="790" type="line"/>
    </contour>
  </outline>
</glyph>
<glyph name="dollar.proportional" format="1">
  <advance width="599"/>
  <outline>
    <contour>
      <point x="280" y="788" type="line"/>
      <point x="280" y="679" type="line"/>
      <point x="280" y="669" type="line"/>
      <point x="280" y="35" type="line"/>
      <point x="280" y="29" type="line"/>
      <point x="280" y="-120" type="line"/>
      <point x="327" y="-120" type="line"/>
      <point x="327" y="26" type="line"/>
      <point x="327" y="36" type="line"/>
      <point x="327" y="670" type="line"/>
      <point x="327" y="678" type="line"/>
      <point x="327" y="788" type="line"/>
    </contour>
    <contour>
      <point x="307" y="52" type="curve" smooth="yes"/>
      <point x="216" y="52"/>
      <point x="129" y="86"/>
      <point x="90" y="143" type="curve"/>
      <point x="85" y="125"/>
      <point x="100" y="102"/>
      <point x="123" y="91" type="curve"/>
      <point x="123" y="201" type="line"/>
      <point x="53" y="201" type="line"/>
      <point x="53" y="98" type="line"/>
      <point x="97" y="54"/>
      <point x="194" y="10"/>
      <point x="309" y="10" type="curve" smooth="yes"/>
      <point x="442" y="10"/>
      <point x="544" y="74"/>
      <point x="544" y="201" type="curve" smooth="yes"/>
      <point x="544" y="323"/>
      <point x="431" y="363"/>
      <point x="333" y="389" type="curve" smooth="yes"/>
      <point x="233" y="414"/>
      <point x="137" y="435"/>
      <point x="137" y="531" type="curve" smooth="yes"/>
      <point x="137" y="612"/>
      <point x="200" y="656"/>
      <point x="313" y="656" type="curve" smooth="yes"/>
      <point x="398" y="656"/>
      <point x="457" y="623"/>
      <point x="487" y="588" type="curve"/>
      <point x="491" y="606"/>
      <point x="472" y="634"/>
      <point x="454" y="638" type="curve"/>
      <point x="454" y="537" type="line"/>
      <point x="522" y="537" type="line"/>
      <point x="522" y="630" type="line"/>
      <point x="491" y="659"/>
      <point x="412" y="698"/>
      <point x="310" y="698" type="curve" smooth="yes"/>
      <point x="170" y="698"/>
      <point x="82" y="634"/>
      <point x="82" y="526" type="curve" smooth="yes"/>
      <point x="82" y="401"/>
      <point x="190" y="369"/>
      <point x="286" y="344" type="curve" smooth="yes"/>
      <point x="386" y="317"/>
      <point x="486" y="297"/>
      <point x="486" y="190" type="curve" smooth="yes"/>
      <point x="486" y="92"/>
      <point x="414" y="52"/>
    </contour>
  </outline>
</glyph>
<glyph name="f.short" format="1">
  <advance width="382"/>
  <outline>
    <contour>
      <point x="36" y="508" type="line"/>
      <point x="36" y="467" type="line"/>
      <point x="352" y="467" type="line"/>
      <point x="352" y="508" type="line"/>
    </contour>
    <contour>
      <point x="203" y="45" type="curve" smooth="yes"/>
      <point x="203" y="590" type="line" smooth="yes"/>
      <point x="203" y="686"/>
      <point x="240" y="710"/>
      <point x="293" y="710" type="curve" smooth="yes"/>
      <point x="322" y="710"/>
      <point x="343" y="702"/>
      <point x="359" y="696" type="curve"/>
      <point x="359" y="742" type="line"/>
      <point x="345" y="747"/>
      <point x="323" y="752"/>
      <point x="294" y="752" type="curve" smooth="yes"/>
      <point x="214" y="752"/>
      <point x="140" y="711"/>
      <point x="140" y="590" type="curve" smooth="yes"/>
      <point x="140" y="71" type="line" smooth="yes"/>
      <point x="140" y="42"/>
      <point x="107" y="35"/>
      <point x="52" y="35" type="curve" smooth="yes"/>
      <point x="41" y="35" type="line"/>
      <point x="41" y="0" type="line"/>
      <point x="311" y="0" type="line"/>
      <point x="311" y="35" type="line"/>
      <point x="298" y="35" type="line" smooth="yes"/>
      <point x="244" y="35"/>
      <point x="203" y="38"/>
    </contour>
  </outline>
</glyph>
<glyph name="f_b" format="1">
  <advance width="993"/>
  <outline>
    <contour>
      <point x="881" y="257" type="curve" smooth="yes"/>
      <point x="881" y="122"/>
      <point x="822" y="32"/>
      <point x="712" y="32" type="curve" smooth="yes"/>
      <point x="629" y="32"/>
      <point x="565" y="89"/>
      <point x="520" y="188" type="curve"/>
      <point x="492" y="166" type="line"/>
      <point x="552" y="48"/>
      <point x="612" y="-11"/>
      <point x="715" y="-11" type="curve" smooth="yes"/>
      <point x="855" y="-11"/>
      <point x="948" y="99"/>
      <point x="948" y="257" type="curve" smooth="yes"/>
      <point x="948" y="414"/>
      <point x="858" y="518"/>
      <point x="723" y="518" type="curve" smooth="yes"/>
      <point x="615" y="518"/>
      <point x="555" y="453"/>
      <point x="488" y="334" type="curve"/>
      <point x="515" y="309" type="line"/>
      <point x="565" y="412"/>
      <point x="629" y="475"/>
      <point x="717" y="475" type="curve" smooth="yes"/>
      <point x="824" y="475"/>
      <point x="881" y="391"/>
    </contour>
    <contour>
      <point x="472" y="701" type="line"/>
      <point x="472" y="-3" type="line"/>
      <point x="513" y="-3" type="line"/>
      <point x="530" y="117" type="line"/>
      <point x="535" y="132" type="line"/>
      <point x="535" y="735" type="line"/>
      <point x="408" y="735" type="line"/>
    </contour>
    <contour>
      <point x="36" y="508" type="line"/>
      <point x="36" y="467" type="line"/>
      <point x="354" y="467" type="line"/>
      <point x="354" y="508" type="line"/>
    </contour>
    <contour>
      <point x="203" y="584" type="line" smooth="yes"/>
      <point x="203" y="685"/>
      <point x="251" y="710"/>
      <point x="335" y="710" type="curve" smooth="yes"/>
      <point x="402" y="710"/>
      <point x="455" y="689"/>
      <point x="496" y="650" type="curve"/>
      <point x="501" y="705" type="line"/>
      <point x="464" y="729"/>
      <point x="409" y="752"/>
      <point x="336" y="752" type="curve" smooth="yes"/>
      <point x="225" y="752"/>
      <point x="140" y="709"/>
      <point x="140" y="584" type="curve" smooth="yes"/>
      <point x="140" y="71" type="line" smooth="yes"/>
      <point x="140" y="42"/>
      <point x="107" y="35"/>
      <point x="52" y="35" type="curve" smooth="yes"/>
      <point x="41" y="35" type="line"/>
      <point x="41" y="0" type="line"/>
      <point x="307" y="0" type="line"/>
      <point x="307" y="35" type="line"/>
      <point x="294" y="35" type="line" smooth="yes"/>
      <point x="242" y="35"/>
      <point x="203" y="38"/>
      <point x="203" y="45" type="curve" smooth="yes"/>
    </contour>
  </outline>
</glyph>
<glyph name="f_f.short" format="1">
  <advance width="713"/>
  <outline>
    <contour>
      <point x="36" y="508" type="line"/>
      <point x="36" y="467" type="line"/>
      <point x="418" y="467" type="line"/>
      <point x="418" y="508" type="line"/>
    </contour>
    <contour>
      <point x="368" y="508" type="line"/>
      <point x="368" y="467" type="line"/>
      <point x="683" y="467" type="line"/>
      <point x="683" y="508" type="line"/>
    </contour>
    <contour>
      <point x="472" y="45" type="line"/>
      <point x="472" y="38"/>
      <point x="433" y="35"/>
      <point x="387" y="35" type="curve" smooth="yes"/>
      <point x="373" y="35" type="line"/>
      <point x="373" y="0" type="line"/>
      <point x="643" y="0" type="line"/>
      <point x="643" y="35" type="line"/>
      <point x="630" y="35" type="line" smooth="yes"/>
      <point x="576" y="35"/>
      <point x="535" y="38"/>
      <point x="535" y="45" type="curve" smooth="yes"/>
      <point x="535" y="590" type="line" smooth="yes"/>
      <point x="535" y="686"/>
      <point x="572" y="710"/>
      <point x="624" y="710" type="curve" smooth="yes"/>
      <point x="653" y="710"/>
      <point x="675" y="702"/>
      <point x="690" y="696" type="curve"/>
      <point x="690" y="742" type="line"/>
      <point x="677" y="747"/>
      <point x="654" y="752"/>
      <point x="626" y="752" type="curve" smooth="yes"/>
      <point x="545" y="752"/>
      <point x="472" y="711"/>
      <point x="472" y="590" type="curve"/>
    </contour>
    <contour>
      <point x="203" y="45" type="curve"/>
      <point x="203" y="568" type="line" smooth="yes"/>
      <point x="203" y="668"/>
      <point x="242" y="697"/>
      <point x="301" y="697" type="curve" smooth="yes"/>
      <point x="332" y="697"/>
      <point x="358" y="688"/>
      <point x="378" y="680" type="curve"/>
      <point x="378" y="727" type="line"/>
      <point x="361" y="733"/>
      <point x="331" y="737"/>
      <point x="303" y="737" type="curve" smooth="yes"/>
      <point x="215" y="737"/>
      <point x="140" y="693"/>
      <point x="140" y="568" type="curve" smooth="yes"/>
      <point x="140" y="71" type="line" smooth="yes"/>
      <point x="140" y="42"/>
      <point x="107" y="35"/>
      <point x="52" y="35" type="curve" smooth="yes"/>
      <point x="41" y="35" type="line"/>
      <point x="41" y="0" type="line"/>
      <point x="300" y="0" type="line"/>
      <point x="300" y="35" type="line"/>
      <point x="291" y="35" type="line" smooth="yes"/>
      <point x="241" y="35"/>
      <point x="203" y="38"/>
    </contour>
  </outline>
</glyph>
<glyph name="f_f_b" format="1">
  <advance width="1324"/>
  <outline>
    <contour>
      <point x="1213" y="257" type="curve" smooth="yes"/>
      <point x="1213" y="122"/>
      <point x="1154" y="32"/>
      <point x="1044" y="32" type="curve" smooth="yes"/>
      <point x="961" y="32"/>
      <point x="897" y="89"/>
      <point x="852" y="188" type="curve"/>
      <point x="823" y="166" type="line"/>
      <point x="883" y="48"/>
      <point x="943" y="-11"/>
      <point x="1046" y="-11" type="curve" smooth="yes"/>
      <point x="1187" y="-11"/>
      <point x="1279" y="99"/>
      <point x="1279" y="257" type="curve" smooth="yes"/>
      <point x="1279" y="414"/>
      <point x="1190" y="518"/>
      <point x="1054" y="518" type="curve" smooth="yes"/>
      <point x="946" y="518"/>
      <point x="887" y="453"/>
      <point x="820" y="334" type="curve"/>
      <point x="846" y="309" type="line"/>
      <point x="897" y="412"/>
      <point x="961" y="475"/>
      <point x="1048" y="475" type="curve" smooth="yes"/>
      <point x="1155" y="475"/>
      <point x="1213" y="391"/>
    </contour>
    <contour>
      <point x="36" y="508" type="line"/>
      <point x="36" y="467" type="line"/>
      <point x="418" y="467" type="line"/>
      <point x="418" y="508" type="line"/>
    </contour>
    <contour>
      <point x="368" y="508" type="line"/>
      <point x="368" y="467" type="line"/>
      <point x="686" y="467" type="line"/>
      <point x="686" y="508" type="line"/>
    </contour>
    <contour>
      <point x="867" y="735" type="line"/>
      <point x="745" y="735" type="line"/>
      <point x="804" y="696" type="line"/>
      <point x="804" y="-3" type="line"/>
      <point x="845" y="-3" type="line"/>
      <point x="862" y="117" type="line"/>
      <point x="867" y="132" type="line"/>
    </contour>
    <contour>
      <point x="140" y="71" type="line" smooth="yes"/>
      <point x="140" y="42"/>
      <point x="107" y="35"/>
      <point x="52" y="35" type="curve" smooth="yes"/>
      <point x="41" y="35" type="line"/>
      <point x="41" y="0" type="line"/>
      <point x="300" y="0" type="line"/>
      <point x="300" y="35" type="line"/>
      <point x="291" y="35" type="line" smooth="yes"/>
      <point x="241" y="35"/>
      <point x="203" y="38"/>
      <point x="203" y="45" type="curve"/>
      <point x="203" y="568" type="line" smooth="yes"/>
      <point x="203" y="668"/>
      <point x="242" y="697"/>
      <point x="301" y="697" type="curve" smooth="yes"/>
      <point x="332" y="697"/>
      <point x="358" y="688"/>
      <point x="378" y="680" type="curve"/>
      <point x="378" y="727" type="line"/>
      <point x="361" y="733"/>
      <point x="331" y="737"/>
      <point x="303" y="737" type="curve" smooth="yes"/>
      <point x="215" y="737"/>
      <point x="140" y="693"/>
      <point x="140" y="568" type="curve" smooth="yes"/>
    </contour>
    <contour>
      <point x="638" y="0" type="line"/>
      <point x="638" y="35" type="line"/>
      <point x="625" y="35" type="line" smooth="yes"/>
      <point x="574" y="35"/>
      <point x="535" y="38"/>
      <point x="535" y="45" type="curve" smooth="yes"/>
      <point x="535" y="584" type="line" smooth="yes"/>
      <point x="535" y="685"/>
      <point x="583" y="710"/>
      <point x="667" y="710" type="curve" smooth="yes"/>
      <point x="729" y="710"/>
      <point x="782" y="694"/>
      <point x="828" y="650" type="curve"/>
      <point x="833" y="705" type="line"/>
      <point x="796" y="729"/>
      <point x="741" y="752"/>
      <point x="668" y="752" type="curve" smooth="yes"/>
      <point x="557" y="752"/>
      <point x="472" y="709"/>
      <point x="472" y="584" type="curve"/>
      <point x="472" y="45" type="line"/>
      <point x="472" y="38"/>
      <point x="432" y="35"/>
      <point x="388" y="35" type="curve" smooth="yes"/>
      <point x="373" y="35" type="line"/>
      <point x="373" y="0" type="line"/>
    </contour>
  </outline>
</glyph>
<glyph name="f_f_j" format="1">
  <advance width="962"/>
  <outline>
    <contour>
      <point x="36" y="508" type="line"/>
      <point x="36" y="467" type="line"/>
      <point x="411" y="467" type="line"/>
      <point x="411" y="508" type="line"/>
    </contour>
    <contour>
      <point x="825" y="639" type="curve" smooth="yes"/>
      <point x="854" y="639"/>
      <point x="875" y="657"/>
      <point x="875" y="689" type="curve" smooth="yes"/>
      <point x="875" y="720"/>
      <point x="854" y="738"/>
      <point x="825" y="738" type="curve" smooth="yes"/>
      <point x="796" y="738"/>
      <point x="775" y="720"/>
      <point x="775" y="689" type="curve" smooth="yes"/>
      <point x="775" y="657"/>
      <point x="796" y="639"/>
    </contour>
    <contour>
      <point x="368" y="508" type="line"/>
      <point x="368" y="467" type="line"/>
      <point x="777" y="467" type="line"/>
      <point x="777" y="508" type="line"/>
    </contour>
    <contour>
      <point x="804" y="-61" type="line" smooth="yes"/>
      <point x="804" y="-159"/>
      <point x="764" y="-190"/>
      <point x="701" y="-190" type="curve" smooth="yes"/>
      <point x="668" y="-190"/>
      <point x="642" y="-183"/>
      <point x="619" y="-175" type="curve"/>
      <point x="619" y="-223" type="line"/>
      <point x="638" y="-230"/>
      <point x="667" y="-236"/>
      <point x="703" y="-236" type="curve" smooth="yes"/>
      <point x="784" y="-236"/>
      <point x="867" y="-199"/>
      <point x="867" y="-61" type="curve" smooth="yes"/>
      <point x="867" y="508" type="line"/>
      <point x="719" y="508" type="line"/>
      <point x="719" y="467" type="line"/>
      <point x="730" y="467" type="line" smooth="yes"/>
      <point x="781" y="467"/>
      <point x="804" y="452"/>
      <point x="804" y="423" type="curve" smooth="yes"/>
    </contour>
    <contour>
      <point x="203" y="45" type="curve"/>
      <point x="203" y="568" type="line" smooth="yes"/>
      <point x="203" y="668"/>
      <point x="242" y="697"/>
      <point x="301" y="697" type="curve" smooth="yes"/>
      <point x="332" y="697"/>
      <point x="358" y="688"/>
      <point x="378" y="680" type="curve"/>
      <point x="378" y="727" type="line"/>
      <point x="361" y="733"/>
      <point x="331" y="737"/>
      <point x="303" y="737" type="curve" smooth="yes"/>
      <point x="215" y="737"/>
      <point x="140" y="693"/>
      <point x="140" y="568" type="curve" smooth="yes"/>
      <point x="140" y="71" type="line" smooth="yes"/>
      <point x="140" y="42"/>
      <point x="107" y="35"/>
      <point x="52" y="35" type="curve" smooth="yes"/>
      <point x="41" y="35" type="line"/>
      <point x="41" y="0" type="line"/>
      <point x="300" y="0" type="line"/>
      <point x="300" y="35" type="line"/>
      <point x="291" y="35" type="line" smooth="yes"/>
      <point x="241" y="35"/>
      <point x="203" y="38"/>
    </contour>
    <contour>
      <point x="472" y="45" type="line"/>
      <point x="472" y="38"/>
      <point x="433" y="35"/>
      <point x="387" y="35" type="curve" smooth="yes"/>
      <point x="373" y="35" type="line"/>
      <point x="373" y="0" type="line"/>
      <point x="638" y="0" type="line"/>
      <point x="638" y="35" type="line"/>
      <point x="625" y="35" type="line" smooth="yes"/>
      <point x="574" y="35"/>
      <point x="535" y="38"/>
      <point x="535" y="45" type="curve" smooth="yes"/>
      <point x="535" y="582" type="line" smooth="yes"/>
      <point x="535" y="683"/>
      <point x="571" y="711"/>
      <point x="627" y="711" type="curve" smooth="yes"/>
      <point x="656" y="711"/>
      <point x="681" y="703"/>
      <point x="700" y="695" type="curve"/>
      <point x="700" y="742" type="line"/>
      <point x="684" y="748"/>
      <point x="656" y="752"/>
      <point x="628" y="752" type="curve" smooth="yes"/>
      <point x="544" y="752"/>
      <point x="472" y="707"/>
      <point x="472" y="582" type="curve"/>
    </contour>
  </outline>
</glyph>
<glyph name="f_l" format="1">
  <advance width="646"/>
  <outline>
    <contour>
      <point x="36" y="508" type="line"/>
      <point x="36" y="467" type="line"/>
      <point x="354" y="467" type="line"/>
      <point x="354" y="508" type="line"/>
    </contour>
    <contour>
      <point x="472" y="45" type="line"/>
      <point x="472" y="38"/>
      <point x="427" y="35"/>
      <point x="399" y="35" type="curve" smooth="yes"/>
      <point x="388" y="35" type="line"/>
      <point x="388" y="0" type="line"/>
      <point x="619" y="0" type="line"/>
      <point x="619" y="35" type="line"/>
      <point x="617" y="35" type="line" smooth="yes"/>
      <point x="569" y="35"/>
      <point x="535" y="42"/>
      <point x="535" y="71" type="curve"/>
      <point x="535" y="735" type="line"/>
      <point x="415" y="735" type="line"/>
      <point x="472" y="700" type="line"/>
    </contour>
    <contour>
      <point x="307" y="0" type="line"/>
      <point x="307" y="35" type="line"/>
      <point x="294" y="35" type="line" smooth="yes"/>
      <point x="242" y="35"/>
      <point x="203" y="38"/>
      <point x="203" y="45" type="curve" smooth="yes"/>
      <point x="203" y="584" type="line" smooth="yes"/>
      <point x="203" y="685"/>
      <point x="251" y="710"/>
      <point x="335" y="710" type="curve" smooth="yes"/>
      <point x="397" y="710"/>
      <point x="451" y="694"/>
      <point x="496" y="650" type="curve"/>
      <point x="501" y="705" type="line"/>
      <point x="464" y="729"/>
      <point x="409" y="752"/>
      <point x="336" y="752" type="curve" smooth="yes"/>
      <point x="225" y="752"/>
      <point x="140" y="709"/>
      <point x="140" y="584" type="curve" smooth="yes"/>
      <point x="140" y="71" type="line"/>
      <point x="140" y="42"/>
      <point x="107" y="35"/>
      <point x="52" y="35" type="curve" smooth="yes"/>
      <point x="41" y="35" type="line"/>
      <point x="41" y="0" type="line"/>
    </contour>
  </outline>
</glyph>
<glyph name="five.old" format="1">
  <advance width="560"/>
  <outline>
    <contour>
      <point x="273" y="-150" type="curve" smooth="yes"/>
      <point x="151" y="-150"/>
      <point x="76" y="-83"/>
      <point x="39" y="-1" type="curve"/>
      <point x="75" y="30" type="line"/>
      <point x="106" y="-37"/>
      <point x="165" y="-106"/>
      <point x="273" y="-106" type="curve" smooth="yes"/>
      <point x="381" y="-106"/>
      <point x="448" y="-28"/>
      <point x="448" y="89" type="curve" smooth="yes"/>
      <point x="448" y="198"/>
      <point x="378" y="261"/>
      <point x="290" y="261" type="curve" smooth="yes"/>
      <point x="221" y="261"/>
      <point x="171" y="232"/>
      <point x="129" y="179" type="curve"/>
      <point x="90" y="179" type="line"/>
      <point x="90" y="548" type="line"/>
      <point x="473" y="548" type="line"/>
      <point x="457" y="492" type="line"/>
      <point x="117" y="492" type="line"/>
      <point x="137" y="528" type="line"/>
      <point x="137" y="210" type="line"/>
      <point x="134" y="200"/>
      <point x="121" y="191"/>
      <point x="115" y="208" type="curve"/>
      <point x="155" y="266"/>
      <point x="218" y="305"/>
      <point x="300" y="305" type="curve" smooth="yes"/>
      <point x="435" y="305"/>
      <point x="515" y="204"/>
      <point x="515" y="89" type="curve" smooth="yes"/>
      <point x="515" y="-49"/>
      <point x="421" y="-150"/>
    </contour>
  </outline>
</glyph>
<glyph name="florin" format="1">
  <advance width="560"/>
  <outline>
    <contour>
      <point x="159" y="508" type="line"/>
      <point x="153" y="467" type="line"/>
      <point x="508" y="467" type="line"/>
      <point x="513" y="508" type="line"/>
    </contour>
    <contour>
      <point x="263" y="56" type="curve" smooth="yes"/>
      <point x="336" y="574" type="line" smooth="yes"/>
      <point x="350" y="677"/>
      <point x="396" y="712"/>
      <point x="467" y="712" type="curve" smooth="yes"/>
      <point x="500" y="712"/>
      <point x="530" y="704"/>
      <point x="563" y="692" type="curve"/>
      <point x="568" y="740" type="line"/>
      <point x="542" y="752"/>
      <point x="501" y="759"/>
      <point x="466" y="759" type="curve" smooth="yes"/>
      <point x="359" y="759"/>
      <point x="292" y="702"/>
      <point x="275" y="580" type="curve" smooth="yes"/>
      <point x="202" y="50" type="line" smooth="yes"/>
      <point x="176" y="-141"/>
      <point x="120" y="-189"/>
      <point x="54" y="-189" type="curve" smooth="yes"/>
      <point x="21" y="-189"/>
      <point x="-10" y="-178"/>
      <point x="-31" y="-170" type="curve"/>
      <point x="-36" y="-219" type="line"/>
      <point x="-18" y="-227"/>
      <point x="12" y="-236"/>
      <point x="53" y="-236" type="curve" smooth="yes"/>
      <point x="156" y="-236"/>
      <point x="234" y="-155"/>
    </contour>
  </outline>
</glyph>
<glyph name="florin.proportional" format="1">
  <advance width="518"/>
  <outline>
    <contour>
      <point x="124" y="508" type="line"/>
      <point x="119" y="467" type="line"/>
      <point x="473" y="467" type="line"/>
      <point x="478" y="508" type="line"/>
    </contour>
    <contour>
      <point x="228" y="56" type="curve" smooth="yes"/>
      <point x="301" y="574" type="line" smooth="yes"/>
      <point x="316" y="677"/>
      <point x="361" y="712"/>
      <point x="432" y="712" type="curve" smooth="yes"/>
      <point x="466" y="712"/>
      <point x="496" y="704"/>
      <point x="528" y="692" type="curve"/>
      <point x="533" y="740" type="line"/>
      <point x="507" y="752"/>
      <point x="467" y="759"/>
      <point x="431" y="759" type="curve" smooth="yes"/>
      <point x="324" y="759"/>
      <point x="257" y="702"/>
      <point x="240" y="580" type="curve" smooth="yes"/>
      <point x="167" y="50" type="line" smooth="yes"/>
      <point x="141" y="-144"/>
      <point x="85" y="-189"/>
      <point x="19" y="-189" type="curve" smooth="yes"/>
      <point x="-14" y="-189"/>
      <point x="-44" y="-178"/>
      <point x="-65" y="-170" type="curve"/>
      <point x="-70" y="-219" type="line"/>
      <point x="-53" y="-227"/>
      <point x="-22" y="-236"/>
      <point x="18" y="-236" type="curve" smooth="yes"/>
      <point x="121" y="-236"/>
      <point x="198" y="-158"/>
    </contour>
  </outline>
</glyph>
<glyph name="four.lin" format="1">
  <advance width="560"/>
  <outline>
    <contour>
      <point x="31" y="208" type="line"/>
      <point x="539" y="208" type="line"/>
      <point x="539" y="258" type="line"/>
      <point x="55" y="258" type="line"/>
      <point x="61" y="228" type="line"/>
      <point x="366" y="687" type="line"/>
      <point x="386" y="710" type="line"/>
      <point x="329" y="710" type="line"/>
      <point x="31" y="263" type="line"/>
    </contour>
    <contour>
      <point x="352" y="710" type="line"/>
      <point x="352" y="682" type="line"/>
      <point x="352" y="72" type="line" smooth="yes"/>
      <point x="352" y="43"/>
      <point x="314" y="36"/>
      <point x="253" y="36" type="curve" smooth="yes"/>
      <point x="229" y="36" type="line"/>
      <point x="229" y="0" type="line"/>
      <point x="529" y="0" type="line"/>
      <point x="529" y="36" type="line"/>
      <point x="514" y="36" type="line" smooth="yes"/>
      <point x="457" y="36"/>
      <point x="417" y="43"/>
      <point x="417" y="72" type="curve" smooth="yes"/>
      <point x="417" y="710" type="line"/>
    </contour>
  </outline>
</glyph>
<glyph name="guarani.proportional" format="1">
  <advance width="741"/>
  <outline>
    <contour>
      <point x="492" y="355" type="line"/>
      <point x="492" y="317" type="line"/>
      <point x="501" y="317" type="line" smooth="yes"/>
      <point x="548" y="317"/>
      <point x="583" y="310"/>
      <point x="583" y="281" type="curve"/>
      <point x="644" y="281" type="line"/>
      <point x="644" y="310"/>
      <point x="676" y="317"/>
      <point x="719" y="317" type="curve" smooth="yes"/>
      <point x="723" y="317" type="line"/>
      <point x="723" y="355" type="line"/>
    </contour>
    <contour>
      <point x="350" y="790" type="line"/>
      <point x="350" y="676" type="line"/>
      <point x="350" y="667" type="line"/>
      <point x="350" y="36" type="line"/>
      <point x="350" y="28" type="line"/>
      <point x="350" y="-120" type="line"/>
      <point x="397" y="-120" type="line"/>
      <point x="397" y="27" type="line"/>
      <point x="397" y="35" type="line"/>
      <point x="397" y="676" type="line"/>
      <point x="397" y="681" type="line"/>
      <point x="397" y="790" type="line"/>
    </contour>
    <contour>
      <point x="390" y="10" type="curve" smooth="yes"/>
      <point x="507" y="10"/>
      <point x="607" y="73"/>
      <point x="644" y="127" type="curve"/>
      <point x="644" y="327" type="line"/>
      <point x="583" y="335" type="line"/>
      <point x="583" y="134" type="line"/>
      <point x="560" y="109"/>
      <point x="498" y="53"/>
      <point x="391" y="53" type="curve" smooth="yes"/>
      <point x="220" y="53"/>
      <point x="119" y="167"/>
      <point x="119" y="355" type="curve" smooth="yes"/>
      <point x="119" y="539"/>
      <point x="223" y="657"/>
      <point x="393" y="657" type="curve" smooth="yes"/>
      <point x="494" y="657"/>
      <point x="565" y="616"/>
      <point x="601" y="566" type="curve"/>
      <point x="611" y="568"/>
      <point x="599" y="600"/>
      <point x="566" y="619" type="curve"/>
      <point x="566" y="515" type="line"/>
      <point x="638" y="515" type="line"/>
      <point x="638" y="607" type="line"/>
      <point x="597" y="655"/>
      <point x="508" y="700"/>
      <point x="393" y="700" type="curve" smooth="yes"/>
      <point x="191" y="700"/>
      <point x="51" y="559"/>
      <point x="51" y="355" type="curve" smooth="yes"/>
      <point x="51" y="149"/>
      <point x="186" y="10"/>
    </contour>
  </outline>
</glyph>
<glyph name="hook.uc" format="1">
  <advance width="510"/>
  <outline>
    <contour>
      <point x="120" y="882" type="line"/>
      <point x="125" y="928"/>
      <point x="164" y="966"/>
      <point x="238" y="966" type="curve" smooth="yes"/>
      <point x="307" y="966"/>
      <point x="347" y="937"/>
      <point x="347" y="887" type="curve" smooth="yes"/>
      <point x="347" y="830"/>
      <point x="288" y="802"/>
      <point x="223" y="797" type="curve"/>
      <point x="252" y="825" type="line"/>
      <point x="252" y="759" type="line"/>
      <point x="204" y="759" type="line"/>
      <point x="204" y="829" type="line"/>
      <point x="258" y="832"/>
      <point x="290" y="849"/>
      <point x="290" y="885" type="curve" smooth="yes"/>
      <point x="290" y="913"/>
      <point x="271" y="930"/>
      <point x="237" y="930" type="curve" smooth="yes"/>
      <point x="196" y="930"/>
      <point x="179" y="909"/>
      <point x="174" y="882" type="curve"/>
    </contour>
    <contour>
      <point x="221" y="679" type="move" name="_top"/>
    </contour>
  </outline>
</glyph>
<glyph name="horn" format="1">
  <advance width="500"/>
  <outline>
    <contour>
      <point x="145" y="489" type="curve"/>
      <point x="332" y="479"/>
      <point x="386" y="544"/>
      <point x="390" y="683" type="curve"/>
      <point x="331" y="683" type="line"/>
      <point x="326" y="554"/>
      <point x="291" y="518"/>
      <point x="115" y="518" type="curve"/>
      <point x="122" y="511"/>
      <point x="137" y="495"/>
    </contour>
    <contour>
      <point x="256" y="444" type="move" name="_top"/>
    </contour>
  </outline>
</glyph>
<glyph name="macrongrave" format="1">
  <advance width="630"/>
  <outline>
    <component base="macron_grave"/>
    <contour>
      <point x="309" y="561" type="move" name="_top"/>
    </contour>
  </outline>
</glyph>
<glyph name="minus.sub" format="1">
  <advance width="400"/>
  <outline>
    <contour>
      <point x="350" y="99" type="line"/>
      <point x="50" y="99" type="line"/>
      <point x="50" y="61" type="line"/>
      <point x="350" y="61" type="line"/>
    </contour>
  </outline>
</glyph>
<glyph name="naira.proportional" format="1">
  <advance width="737"/>
  <outline>
    <contour>
      <point x="42" y="0" type="line"/>
      <point x="292" y="0" type="line"/>
      <point x="292" y="38" type="line"/>
      <point x="278" y="38" type="line" smooth="yes"/>
      <point x="235" y="38"/>
      <point x="186" y="46"/>
      <point x="186" y="53" type="curve" smooth="yes"/>
      <point x="186" y="701" type="line"/>
      <point x="175" y="699" type="line"/>
      <point x="524" y="0" type="line"/>
      <point x="602" y="0" type="line"/>
      <point x="602" y="631" type="line" smooth="yes"/>
      <point x="602" y="660"/>
      <point x="638" y="672"/>
      <point x="687" y="672" type="curve" smooth="yes"/>
      <point x="699" y="672" type="line"/>
      <point x="699" y="710" type="line"/>
      <point x="449" y="710" type="line"/>
      <point x="449" y="672" type="line"/>
      <point x="463" y="672" type="line" smooth="yes"/>
      <point x="506" y="672"/>
      <point x="555" y="664"/>
      <point x="555" y="657" type="curve" smooth="yes"/>
      <point x="555" y="31" type="line"/>
      <point x="571" y="22" type="line"/>
      <point x="230" y="710" type="line"/>
      <point x="42" y="710" type="line"/>
      <point x="42" y="672" type="line"/>
      <point x="53" y="672" type="line" smooth="yes"/>
      <point x="102" y="672"/>
      <point x="138" y="665"/>
      <point x="138" y="636" type="curve" smooth="yes"/>
      <point x="138" y="79" type="line" smooth="yes"/>
      <point x="138" y="50"/>
      <point x="102" y="38"/>
      <point x="53" y="38" type="curve" smooth="yes"/>
      <point x="42" y="38" type="line"/>
    </contour>
    <contour>
      <point x="35" y="450" type="line"/>
      <point x="35" y="409" type="line"/>
      <point x="165" y="409" type="line"/>
      <point x="165" y="450" type="line"/>
    </contour>
    <contour>
      <point x="348" y="409" type="line"/>
      <point x="572" y="409" type="line"/>
      <point x="581" y="409" type="line"/>
      <point x="702" y="409" type="line"/>
      <point x="702" y="450" type="line"/>
      <point x="333" y="450" type="line"/>
    </contour>
    <contour>
      <point x="580" y="249" type="line"/>
      <point x="702" y="249" type="line"/>
      <point x="702" y="290" type="line"/>
      <point x="580" y="290" type="line"/>
    </contour>
    <contour>
      <point x="35" y="290" type="line"/>
      <point x="35" y="249" type="line"/>
      <point x="428" y="249" type="line"/>
      <point x="408" y="290" type="line"/>
      <point x="166" y="290" type="line"/>
      <point x="154" y="290" type="line"/>
    </contour>
  </outline>
</glyph>
<glyph name="one.lin" format="1">
  <advance width="560"/>
  <outline>
    <contour>
      <point x="338" y="72" type="curve" smooth="yes"/>
      <point x="338" y="710" type="line"/>
      <point x="295" y="710" type="line"/>
      <point x="260" y="658"/>
      <point x="189" y="636"/>
      <point x="98" y="634" type="curve"/>
      <point x="98" y="590" type="line"/>
      <point x="182" y="588"/>
      <point x="266" y="616"/>
      <point x="285" y="662" type="curve"/>
      <point x="290" y="675"/>
      <point x="287" y="679"/>
      <point x="273" y="657" type="curve"/>
      <point x="273" y="72" type="line" smooth="yes"/>
      <point x="273" y="43"/>
      <point x="233" y="36"/>
      <point x="168" y="36" type="curve" smooth="yes"/>
      <point x="111" y="36" type="line"/>
      <point x="111" y="0" type="line"/>
      <point x="496" y="0" type="line"/>
      <point x="496" y="36" type="line"/>
      <point x="453" y="36" type="line" smooth="yes"/>
      <point x="382" y="36"/>
      <point x="338" y="43"/>
    </contour>
  </outline>
</glyph>
<glyph name="ringcomb" format="1">
  <outline>
    <contour>
      <point x="-352" y="674" type="curve" smooth="yes"/>
      <point x="-352" y="716"/>
      <point x="-326" y="737"/>
      <point x="-293" y="737" type="curve" smooth="yes"/>
      <point x="-260" y="737"/>
      <point x="-233" y="716"/>
      <point x="-233" y="674" type="curve" smooth="yes"/>
      <point x="-233" y="632"/>
      <point x="-260" y="611"/>
      <point x="-293" y="611" type="curve" smooth="yes"/>
      <point x="-326" y="611"/>
      <point x="-352" y="632"/>
    </contour>
    <contour>
      <point x="-186" y="674" type="curve" smooth="yes"/>
      <point x="-186" y="734"/>
      <point x="-233" y="768"/>
      <point x="-293" y="768" type="curve" smooth="yes"/>
      <point x="-352" y="768"/>
      <point x="-400" y="734"/>
      <point x="-400" y="674" type="curve" smooth="yes"/>
      <point x="-400" y="614"/>
      <point x="-351" y="579"/>
      <point x="-293" y="579" type="curve" smooth="yes"/>
      <point x="-234" y="579"/>
      <point x="-186" y="614"/>
    </contour>
    <contour>
      <point x="-143" y="526" type="move" name="_top"/>
    </contour>
  </outline>
</glyph>
<glyph name="rupeeIndian" format="1">
  <advance width="561"/>
  <outline>
    <contour>
      <point x="72" y="514" type="line"/>
      <point x="72" y="473" type="line"/>
      <point x="543" y="473" type="line"/>
      <point x="543" y="514" type="line"/>
    </contour>
    <contour>
      <point x="109" y="278" type="line"/>
      <point x="144" y="278" type="line" smooth="yes"/>
      <point x="308" y="278"/>
      <point x="411" y="366"/>
      <point x="411" y="497" type="curve" smooth="yes"/>
      <point x="411" y="590"/>
      <point x="353" y="660"/>
      <point x="234" y="680" type="curve"/>
      <point x="203" y="694"/>
      <point x="154" y="704"/>
      <point x="198" y="670" type="curve"/>
      <point x="543" y="670" type="line"/>
      <point x="543" y="710" type="line"/>
      <point x="72" y="710" type="line"/>
      <point x="72" y="665" type="line"/>
      <point x="154" y="665" type="line" smooth="yes"/>
      <point x="277" y="665"/>
      <point x="342" y="601"/>
      <point x="342" y="497" type="curve" smooth="yes"/>
      <point x="342" y="389"/>
      <point x="281" y="318"/>
      <point x="144" y="318" type="curve" smooth="yes"/>
      <point x="72" y="318" type="line"/>
      <point x="72" y="284" type="line"/>
      <point x="368" y="0" type="line"/>
      <point x="480" y="0" type="line"/>
      <point x="480" y="38" type="line"/>
      <point x="466" y="38" type="line" smooth="yes"/>
      <point x="429" y="38"/>
      <point x="407" y="45"/>
      <point x="384" y="66" type="curve" smooth="yes"/>
      <point x="126" y="306" type="line"/>
    </contour>
  </outline>
</glyph>
<glyph name="seven.old" format="1">
  <advance width="560"/>
  <outline>
    <contour>
      <point x="235" y="492" type="line" smooth="yes"/>
      <point x="149" y="492"/>
      <point x="114" y="485"/>
      <point x="110" y="449" type="curve" smooth="yes"/>
      <point x="101" y="359" type="line"/>
      <point x="62" y="359" type="line"/>
      <point x="62" y="548" type="line"/>
      <point x="523" y="548" type="line"/>
      <point x="523" y="493" type="line"/>
      <point x="399" y="325"/>
      <point x="288" y="179"/>
      <point x="263" y="-135" type="curve"/>
      <point x="195" y="-135" type="line"/>
      <point x="223" y="180"/>
      <point x="395" y="397"/>
      <point x="486" y="506" type="curve"/>
      <point x="495" y="492" type="line"/>
    </contour>
  </outline>
</glyph>
<glyph name="sterling.alt" format="1">
  <advance width="560"/>
  <outline>
    <contour>
      <point x="32" y="360" type="line"/>
      <point x="32" y="320" type="line"/>
      <point x="400" y="320" type="line"/>
      <point x="400" y="360" type="line"/>
    </contour>
    <contour>
      <point x="36" y="0" type="line"/>
      <point x="513" y="0" type="line"/>
      <point x="513" y="190" type="line"/>
      <point x="472" y="190" type="line"/>
      <point x="463" y="93" type="line" smooth="yes"/>
      <point x="460" y="57"/>
      <point x="424" y="50"/>
      <point x="338" y="50" type="curve"/>
      <point x="64" y="50" type="line"/>
      <point x="95" y="42" type="line"/>
      <point x="181" y="82"/>
      <point x="230" y="159"/>
      <point x="230" y="239" type="curve" smooth="yes"/>
      <point x="230" y="346"/>
      <point x="154" y="411"/>
      <point x="154" y="526" type="curve" smooth="yes"/>
      <point x="154" y="620"/>
      <point x="220" y="674"/>
      <point x="312" y="674" type="curve" smooth="yes"/>
      <point x="383" y="674"/>
      <point x="425" y="646"/>
      <point x="453" y="619" type="curve"/>
      <point x="453" y="634"/>
      <point x="442" y="653"/>
      <point x="424" y="662" type="curve"/>
      <point x="424" y="559" type="line"/>
      <point x="491" y="559" type="line"/>
      <point x="491" y="661" type="line"/>
      <point x="463" y="686"/>
      <point x="405" y="718"/>
      <point x="312" y="718" type="curve" smooth="yes"/>
      <point x="179" y="718"/>
      <point x="87" y="641"/>
      <point x="87" y="524" type="curve" smooth="yes"/>
      <point x="87" y="406"/>
      <point x="176" y="329"/>
      <point x="176" y="232" type="curve" smooth="yes"/>
      <point x="176" y="144"/>
      <point x="109" y="93"/>
      <point x="36" y="53" type="curve"/>
    </contour>
  </outline>
</glyph>
<glyph name="sterling.proportional" format="1">
  <advance width="612"/>
  <outline>
    <contour>
      <point x="51" y="359" type="line"/>
      <point x="51" y="318" type="line"/>
      <point x="448" y="318" type="line"/>
      <point x="448" y="359" type="line"/>
    </contour>
    <contour>
      <point x="414" y="-6" type="curve" smooth="yes"/>
      <point x="503" y="-6"/>
      <point x="554" y="61"/>
      <point x="575" y="153" type="curve"/>
      <point x="534" y="169" type="line"/>
      <point x="513" y="93"/>
      <point x="480" y="58"/>
      <point x="421" y="58" type="curve" smooth="yes"/>
      <point x="355" y="58"/>
      <point x="294" y="94"/>
      <point x="225" y="161" type="curve"/>
      <point x="216" y="158"/>
      <point x="208" y="136"/>
      <point x="200" y="120" type="curve"/>
      <point x="284" y="43"/>
      <point x="333" y="-6"/>
    </contour>
    <contour>
      <point x="339" y="674" type="curve" smooth="yes"/>
      <point x="414" y="674"/>
      <point x="463" y="645"/>
      <point x="491" y="615" type="curve"/>
      <point x="491" y="633"/>
      <point x="480" y="653"/>
      <point x="462" y="662" type="curve"/>
      <point x="462" y="560" type="line"/>
      <point x="529" y="560" type="line"/>
      <point x="529" y="659" type="line"/>
      <point x="500" y="684"/>
      <point x="436" y="718"/>
      <point x="338" y="718" type="curve" smooth="yes"/>
      <point x="199" y="718"/>
      <point x="107" y="640"/>
      <point x="107" y="521" type="curve" smooth="yes"/>
      <point x="107" y="402"/>
      <point x="194" y="319"/>
      <point x="194" y="215" type="curve" smooth="yes"/>
      <point x="194" y="121"/>
      <point x="146" y="73"/>
      <point x="45" y="44" type="curve"/>
      <point x="45" y="-5" type="line"/>
      <point x="179" y="26"/>
      <point x="252" y="104"/>
      <point x="252" y="222" type="curve" smooth="yes"/>
      <point x="252" y="336"/>
      <point x="174" y="409"/>
      <point x="174" y="524" type="curve" smooth="yes"/>
      <point x="174" y="620"/>
      <point x="239" y="674"/>
    </contour>
  </outline>
</glyph>
<glyph name="three.old" format="1">
  <advance width="560"/>
  <outline>
    <contour>
      <point x="276" y="-106" type="curve" smooth="yes"/>
      <point x="378" y="-106"/>
      <point x="446" y="-50"/>
      <point x="446" y="50" type="curve" smooth="yes"/>
      <point x="446" y="143"/>
      <point x="390" y="202"/>
      <point x="259" y="202" type="curve" smooth="yes"/>
      <point x="187" y="202" type="line"/>
      <point x="187" y="245" type="line"/>
      <point x="247" y="245" type="line" smooth="yes"/>
      <point x="349" y="245"/>
      <point x="418" y="291"/>
      <point x="418" y="382" type="curve" smooth="yes"/>
      <point x="418" y="476"/>
      <point x="356" y="514"/>
      <point x="277" y="514" type="curve" smooth="yes"/>
      <point x="195" y="514"/>
      <point x="143" y="478"/>
      <point x="113" y="439" type="curve"/>
      <point x="117" y="470"/>
      <point x="133" y="493"/>
      <point x="145" y="496" type="curve"/>
      <point x="145" y="391" type="line"/>
      <point x="78" y="391" type="line"/>
      <point x="78" y="476" type="line"/>
      <point x="108" y="512"/>
      <point x="176" y="558"/>
      <point x="279" y="558" type="curve" smooth="yes"/>
      <point x="398" y="558"/>
      <point x="483" y="493"/>
      <point x="483" y="394" type="curve" smooth="yes"/>
      <point x="483" y="282"/>
      <point x="376" y="220"/>
      <point x="253" y="220" type="curve"/>
      <point x="271" y="230" type="line"/>
      <point x="451" y="230"/>
      <point x="513" y="150"/>
      <point x="513" y="50" type="curve" smooth="yes"/>
      <point x="513" y="-68"/>
      <point x="414" y="-150"/>
      <point x="276" y="-150" type="curve" smooth="yes"/>
      <point x="147" y="-150"/>
      <point x="66" y="-84"/>
      <point x="28" y="8" type="curve"/>
      <point x="63" y="40" type="line"/>
      <point x="94" y="-32"/>
      <point x="158" y="-106"/>
    </contour>
  </outline>
</glyph>
<glyph name="two.lin" format="1">
  <advance width="560"/>
  <outline>
    <contour>
      <point x="275" y="720" type="curve" smooth="yes"/>
      <point x="399" y="720"/>
      <point x="491" y="652"/>
      <point x="491" y="523" type="curve" smooth="yes"/>
      <point x="491" y="350"/>
      <point x="272" y="177"/>
      <point x="82" y="33" type="curve"/>
      <point x="78" y="36"/>
      <point x="75" y="45"/>
      <point x="78" y="50" type="curve"/>
      <point x="329" y="50" type="line" smooth="yes"/>
      <point x="413" y="50"/>
      <point x="448" y="57"/>
      <point x="451" y="92" type="curve" smooth="yes"/>
      <point x="460" y="178" type="line"/>
      <point x="502" y="178" type="line"/>
      <point x="502" y="0" type="line"/>
      <point x="50" y="0" type="line"/>
      <point x="50" y="61" type="line"/>
      <point x="245" y="218"/>
      <point x="424" y="361"/>
      <point x="424" y="525" type="curve" smooth="yes"/>
      <point x="424" y="636"/>
      <point x="355" y="676"/>
      <point x="275" y="676" type="curve" smooth="yes"/>
      <point x="188" y="676"/>
      <point x="132" y="634"/>
      <point x="94" y="588" type="curve"/>
      <point x="103" y="623"/>
      <point x="106" y="637"/>
      <point x="130" y="640" type="curve"/>
      <point x="130" y="538" type="line"/>
      <point x="63" y="538" type="line"/>
      <point x="63" y="631" type="line"/>
      <point x="96" y="670"/>
      <point x="169" y="720"/>
    </contour>
  </outline>
</glyph>
<glyph name="two.old" format="1">
  <advance width="560"/>
  <outline>
    <contour>
      <point x="274" y="515" type="curve" smooth="yes"/>
      <point x="197" y="515"/>
      <point x="140" y="478"/>
      <point x="103" y="431" type="curve"/>
      <point x="112" y="467"/>
      <point x="115" y="479"/>
      <point x="138" y="483" type="curve"/>
      <point x="138" y="381" type="line"/>
      <point x="72" y="381" type="line"/>
      <point x="72" y="472" type="line"/>
      <point x="104" y="510"/>
      <point x="178" y="558"/>
      <point x="274" y="558" type="curve" smooth="yes"/>
      <point x="397" y="558"/>
      <point x="472" y="497"/>
      <point x="472" y="395" type="curve" smooth="yes"/>
      <point x="472" y="244"/>
      <point x="264" y="129"/>
      <point x="86" y="33" type="curve"/>
      <point x="82" y="37"/>
      <point x="80" y="43"/>
      <point x="83" y="50" type="curve"/>
      <point x="325" y="50" type="line" smooth="yes"/>
      <point x="408" y="50"/>
      <point x="441" y="56"/>
      <point x="445" y="91" type="curve" smooth="yes"/>
      <point x="454" y="164" type="line"/>
      <point x="496" y="164" type="line"/>
      <point x="496" y="0" type="line"/>
      <point x="55" y="0" type="line"/>
      <point x="55" y="61" type="line"/>
      <point x="235" y="167"/>
      <point x="405" y="257"/>
      <point x="405" y="397" type="curve" smooth="yes"/>
      <point x="405" y="478"/>
      <point x="355" y="515"/>
    </contour>
  </outline>
</glyph>
<glyph name="uni20B4.proportional" format="1">
  <advance width="609"/>
  <outline>
    <contour>
      <point x="28" y="456" type="line"/>
      <point x="28" y="414" type="line"/>
      <point x="580" y="414" type="line"/>
      <point x="580" y="456" type="line"/>
    </contour>
    <contour>
      <point x="28" y="314" type="line"/>
      <point x="28" y="272" type="line"/>
      <point x="580" y="272" type="line"/>
      <point x="580" y="314" type="line"/>
    </contour>
    <contour>
      <point x="312" y="676" type="curve" smooth="yes"/>
      <point x="413" y="676"/>
      <point x="457" y="631"/>
      <point x="457" y="563" type="curve" smooth="yes"/>
      <point x="457" y="503"/>
      <point x="428" y="462"/>
      <point x="368" y="428" type="curve"/>
      <point x="472" y="435" type="line"/>
      <point x="499" y="464"/>
      <point x="517" y="508"/>
      <point x="517" y="558" type="curve" smooth="yes"/>
      <point x="517" y="656"/>
      <point x="446" y="720"/>
      <point x="313" y="720" type="curve" smooth="yes"/>
      <point x="219" y="720"/>
      <point x="145" y="682"/>
      <point x="112" y="654" type="curve"/>
      <point x="112" y="558" type="line"/>
      <point x="182" y="558" type="line"/>
      <point x="182" y="661" type="line"/>
      <point x="161" y="658"/>
      <point x="142" y="628"/>
      <point x="145" y="606" type="curve"/>
      <point x="177" y="644"/>
      <point x="228" y="676"/>
    </contour>
    <contour>
      <point x="313" y="34" type="curve" smooth="yes"/>
      <point x="214" y="34"/>
      <point x="148" y="82"/>
      <point x="148" y="169" type="curve" smooth="yes"/>
      <point x="148" y="221"/>
      <point x="167" y="264"/>
      <point x="207" y="294" type="curve"/>
      <point x="121" y="293" type="line"/>
      <point x="96" y="260"/>
      <point x="85" y="222"/>
      <point x="85" y="178" type="curve" smooth="yes"/>
      <point x="85" y="57"/>
      <point x="177" y="-10"/>
      <point x="312" y="-10" type="curve" smooth="yes"/>
      <point x="413" y="-10"/>
      <point x="499" y="37"/>
      <point x="538" y="77" type="curve"/>
      <point x="538" y="178" type="line"/>
      <point x="468" y="178" type="line"/>
      <point x="468" y="68" type="line"/>
      <point x="489" y="71"/>
      <point x="508" y="106"/>
      <point x="504" y="123" type="curve"/>
      <point x="463" y="70"/>
      <point x="398" y="34"/>
    </contour>
  </outline>
</glyph>
<glyph name="zero.den" format="1">
  <advance width="326"/>
  <outline>
    <contour>
      <point x="163" y="347" type="curve" smooth="yes"/>
      <point x="84" y="347"/>
      <point x="28" y="277"/>
      <point x="28" y="170" type="curve" smooth="yes"/>
      <point x="28" y="64"/>
      <point x="84" y="-6"/>
      <point x="163" y="-6" type="curve" smooth="yes"/>
      <point x="242" y="-6"/>
      <point x="298" y="64"/>
      <point x="298" y="170" type="curve" smooth="yes"/>
      <point x="298" y="277"/>
      <point x="242" y="347"/>
    </contour>
    <contour>
      <point x="163" y="27" type="curve" smooth="yes"/>
      <point x="115" y="27"/>
      <point x="86" y="75"/>
      <point x="86" y="170" type="curve" smooth="yes"/>
      <point x="86" y="265"/>
      <point x="115" y="314"/>
      <point x="163" y="314" type="curve" smooth="yes"/>
      <point x="211" y="314"/>
      <point x="240" y="265"/>
      <point x="240" y="170" type="curve" smooth="yes"/>
      <point x="240" y="76"/>
      <point x="211" y="27"/>
    </contour>
  </outline>
</glyph>
<glyph name="zero.slashold" format="1">
  <advance width="560"/>
  <outline>
    <contour>
      <point x="122" y="101" type="line"/>
      <point x="461" y="406" type="line"/>
      <point x="443" y="446" type="line"/>
      <point x="101" y="137" type="line"/>
    </contour>
    <contour>
      <point x="280" y="32" type="curve" smooth="yes"/>
      <point x="169" y="32"/>
      <point x="104" y="126"/>
      <point x="104" y="274" type="curve" smooth="yes"/>
      <point x="104" y="420"/>
      <point x="169" y="515"/>
      <point x="280" y="515" type="curve" smooth="yes"/>
      <point x="391" y="515"/>
      <point x="456" y="420"/>
      <point x="456" y="274" type="curve" smooth="yes"/>
      <point x="456" y="125"/>
      <point x="391" y="32"/>
    </contour>
    <contour>
      <point x="280" y="-11" type="curve" smooth="yes"/>
      <point x="423" y="-11"/>
      <point x="524" y="105"/>
      <point x="524" y="274" type="curve" smooth="yes"/>
      <point x="524" y="442"/>
      <point x="423" y="558"/>
      <point x="280" y="558" type="curve" smooth="yes"/>
      <point x="137" y="558"/>
      <point x="36" y="442"/>
      <point x="36" y="274" type="curve" smooth="yes"/>
      <point x="36" y="105"/>
      <point x="137" y="-11"/>
    </contour>
  </outline>
</glyph>
